<?xml version="1.0" encoding="UTF-8" standalone="no"?>
<!-- Created with Inkscape (http://www.inkscape.org/) -->

<svg
   width="231.8018mm"
   height="124.99921mm"
   viewBox="0 0 231.8018 124.99922"
   version="1.1"
   id="svg5"
   xml:space="preserve"
   inkscape:version="1.3 (0e150ed6c4, 2023-07-21)"
   sodipodi:docname="dephasing.svg"
   inkscape:export-filename="fig1.png"
   inkscape:export-xdpi="1000"
   inkscape:export-ydpi="1000"
   xmlns:inkscape="http://www.inkscape.org/namespaces/inkscape"
   xmlns:sodipodi="http://sodipodi.sourceforge.net/DTD/sodipodi-0.dtd"
   xmlns:xlink="http://www.w3.org/1999/xlink"
   xmlns="http://www.w3.org/2000/svg"
   xmlns:svg="http://www.w3.org/2000/svg"
   xmlns:ns3="http://www.iki.fi/pav/software/textext/"><sodipodi:namedview
     id="namedview7"
     pagecolor="#ffffff"
     bordercolor="#666666"
     borderopacity="1.0"
     inkscape:showpageshadow="2"
     inkscape:pageopacity="0.0"
     inkscape:pagecheckerboard="0"
     inkscape:deskcolor="#d1d1d1"
     inkscape:document-units="mm"
     showgrid="false"
     inkscape:zoom="0.4204826"
     inkscape:cx="233.06553"
     inkscape:cy="423.3231"
     inkscape:window-width="1904"
     inkscape:window-height="987"
     inkscape:window-x="26"
     inkscape:window-y="23"
     inkscape:window-maximized="0"
     inkscape:current-layer="layer1"><inkscape:page
       x="0"
       y="0"
       width="231.8018"
       height="124.99921"
       id="page5102"
       margin="0"
       bleed="0" /></sodipodi:namedview><defs
     id="defs2"><marker
       style="overflow:visible"
       id="marker77930"
       refX="0"
       refY="0"
       orient="33"
       inkscape:stockid="TriangleStart"
       markerWidth="4.9916334"
       markerHeight="5.6666179"
       viewBox="0 0 4.9916334 5.6666178"
       inkscape:isstock="true"
       inkscape:collect="always"
       preserveAspectRatio="xMidYMid"><path
         style="fill:context-stroke;fill-rule:evenodd;stroke:context-stroke;stroke-width:0.5pt"
         d="M 2.885,0 -1.44,2.5 v -5 z"
         id="path77928" /></marker><marker
       style="overflow:visible"
       id="marker28725"
       refX="0"
       refY="0"
       orient="90"
       inkscape:stockid="TriangleStart"
       markerWidth="4.9916334"
       markerHeight="5.6666179"
       viewBox="0 0 4.9916334 5.6666178"
       inkscape:isstock="true"
       inkscape:collect="always"
       preserveAspectRatio="xMidYMid"><path
         transform="scale(0.5)"
         style="fill:context-stroke;fill-rule:evenodd;stroke:context-stroke;stroke-width:1pt"
         d="M 5.77,0 -2.88,5 V -5 Z"
         id="path28723" /></marker><marker
       style="overflow:visible"
       id="TriangleStart"
       refX="0"
       refY="0"
       orient="auto-start-reverse"
       inkscape:stockid="TriangleStart"
       markerWidth="4.9916334"
       markerHeight="5.6666179"
       viewBox="0 0 4.9916334 5.6666178"
       inkscape:isstock="true"
       inkscape:collect="always"
       preserveAspectRatio="xMidYMid"><path
         transform="scale(0.5)"
         style="fill:context-stroke;fill-rule:evenodd;stroke:context-stroke;stroke-width:1pt"
         d="M 5.77,0 -2.88,5 V -5 Z"
         id="path135" /></marker><pattern
       inkscape:collect="always"
       xlink:href="#pattern26759"
       id="pattern26766"
       patternTransform="matrix(0.26458333,0,0,0.26458333,3.4025815,27.580672)" /><pattern
       inkscape:collect="always"
       xlink:href="#pattern25774"
       id="pattern26762"
       patternTransform="translate(1.4447021e-7)" /><style
       type="text/css"
       id="style134">*{stroke-linejoin: round; stroke-linecap: butt}</style><path
       id="m48ed9c74f7"
       d="M 0,0 V -3.5"
       style="stroke:#000000;stroke-width:0.8" /><path
       id="CMR17-31"
       d="m 1702,4083 c 0,134 -6,141 -96,141 -249,-297 -627,-391 -985,-404 -19,0 -51,0 -58,-12 -6,-13 -6,-26 -6,-160 198,0 531,38 787,191 V 467 C 1344,243 1331,166 781,166 H 589 V 0 c 307,6 627,12 934,12 307,0 627,-6 935,-12 v 166 h -192 c -551,0 -564,70 -564,301 z"
       transform="scale(0.015625)" /><path
       id="CMR17-30"
       d="m 2688,2038 c 0,392 -6,1061 -275,1575 -237,450 -615,611 -947,611 -308,0 -698,-142 -941,-604 C 269,3137 243,2539 243,2038 c 0,-367 7,-926 205,-1415 275,-662 768,-751 1018,-751 294,0 742,121 1004,732 192,444 218,964 218,1434 z M 1466,-26 c -410,0 -653,354 -743,842 -70,380 -70,933 -70,1293 0,495 0,906 83,1298 122,547 480,714 730,714 262,0 601,-174 723,-701 83,-366 89,-797 89,-1311 0,-418 0,-933 -76,-1312 C 2067,96 1690,-26 1466,-26 Z"
       transform="scale(0.015625)" /><path
       id="CMSY10-0"
       d="m 4218,1472 c 108,0 224,0 224,128 0,128 -116,128 -224,128 H 755 c -109,0 -224,0 -224,-128 0,-128 115,-128 224,-128 z"
       transform="scale(0.015625)" /><path
       id="CMR17-32"
       d="M 2669,990 H 2554 C 2490,537 2438,460 2413,422 2381,371 1920,371 1830,371 H 602 c 230,249 678,702 1222,1225 390,370 845,804 845,1437 0,755 -602,1191 -1274,1191 -704,0 -1133,-621 -1133,-1197 0,-250 186,-282 263,-282 64,0 256,38 256,262 0,199 -167,257 -256,257 -39,0 -77,-7 -103,-20 122,544 493,813 884,813 556,0 921,-441 921,-1024 0,-556 -326,-1035 -691,-1450 L 262,147 V 0 h 2253 z"
       transform="scale(0.015625)" /><path
       id="m62f2fa831d"
       d="M 0,0 V -2"
       style="stroke:#000000;stroke-width:0.6" /><path
       id="CMSY10-6a"
       d="m 1018,4569 c 0,115 0,231 -128,231 -128,0 -128,-116 -128,-231 v -5939 c 0,-115 0,-230 128,-230 128,0 128,115 128,230 z"
       transform="scale(0.015625)" /><path
       id="CMBX12-6e"
       d="m 3398,1958 c 0,608 -262,922 -966,922 -461,0 -858,-224 -1075,-704 h -7 v 704 L 269,2828 v -275 c 397,0 441,0 441,-249 V 275 H 269 V 0 c 147,12 608,12 787,12 179,0 646,0 794,-12 v 275 h -442 v 1363 c 0,691 512,1030 922,1030 236,0 371,-153 371,-640 V 275 H 2259 V 0 c 147,12 608,12 787,12 180,0 647,0 794,-12 v 275 h -442 z"
       transform="scale(0.015625)" /><path
       id="CMBX12-30"
       d="m 3309,2060 c 0,617 0,2164 -1511,2164 C 282,4224 282,2683 282,2060 282,1444 282,-64 1792,-64 3302,-64 3309,1424 3309,2060 Z M 1798,147 c -204,0 -358,83 -486,218 -160,161 -262,263 -262,1772 0,450 0,861 51,1194 89,636 550,681 691,681 205,0 602,-96 691,-636 58,-327 58,-847 58,-1239 C 2541,622 2445,532 2253,339 2125,211 1952,147 1798,147 Z"
       transform="scale(0.015625)" /><path
       id="CMMI12-3d"
       d="m 2746,4563 c 0,6 38,102 38,115 0,77 -64,122 -115,122 -32,0 -90,0 -141,-141 L 384,-1364 c 0,-6 -38,-102 -38,-115 0,-77 64,-121 115,-121 38,0 96,6 141,140 z"
       transform="scale(0.015625)" /><path
       id="CMSY10-70"
       d="m 2490,-5472 -1127,2489 c -45,103 -77,103 -96,103 -6,0 -38,0 -109,-52 l -608,-460 c -83,-64 -83,-84 -83,-103 0,-32 19,-70 64,-70 39,0 147,89 218,141 38,32 134,102 205,153 l 1260,-2771 c 45,-102 77,-102 135,-102 96,0 115,38 160,128 L 5414,0 c 45,89 45,115 45,128 0,64 -51,128 -128,128 -51,0 -96,-32 -147,-135 z"
       transform="scale(0.015625)" /><path
       id="CMR17-34"
       d="m 2150,4147 c 0,134 -6,141 -121,141 L 128,1254 V 1088 H 1779 V 460 c 0,-230 -13,-294 -461,-294 H 1197 V 0 c 205,12 550,12 768,12 217,0 563,0 768,-12 v 166 h -122 c -448,0 -461,64 -461,294 v 628 h 653 v 166 H 2150 Z M 1798,3723 V 1254 H 256 Z"
       transform="scale(0.015625)" /><path
       id="CMMI12-14"
       d="m 1363,1595 c 211,115 448,313 608,447 384,332 525,434 768,530 -25,-38 -32,-89 -32,-134 0,-173 147,-205 211,-205 205,0 320,192 320,314 0,38 -12,205 -236,205 -384,0 -762,-327 -1044,-564 -371,-325 -556,-465 -819,-548 l 243,1015 c 0,103 -83,161 -166,161 -58,0 -198,-20 -250,-225 L 371,223 C 352,146 352,134 352,95 352,6 422,-64 518,-64 c 192,0 231,166 263,300 38,133 301,1197 313,1236 813,-39 1088,-243 1088,-555 0,-44 0,-63 -19,-134 -25,-121 -25,-191 -25,-229 0,-382 249,-618 563,-618 262,0 409,185 505,350 135,249 218,599 218,625 0,32 -26,57 -64,57 -58,0 -64,-25 -90,-127 -83,-306 -224,-777 -550,-777 -141,0 -211,82 -211,305 0,121 25,262 51,357 13,64 32,140 32,210 0,582 -806,640 -1229,659 z"
       transform="scale(0.015625)" /><path
       id="CMMI12-74"
       d="m 1286,2566 h 589 c 122,0 186,0 186,115 0,71 -39,71 -167,71 h -563 l 237,912 c 26,88 26,100 26,144 0,102 -84,160 -167,160 -51,0 -198,-20 -249,-222 L 928,2752 H 326 c -128,0 -185,0 -185,-122 0,-64 45,-64 166,-64 H 877 L 454,881 C 403,657 384,593 384,510 384,210 595,-64 954,-64 c 646,0 992,932 992,977 0,38 -26,57 -64,57 -13,0 -39,0 -52,-26 -6,-6 -12,-12 -57,-114 C 1638,510 1344,64 973,64 781,64 768,223 768,364 c 0,6 0,127 19,204 z"
       transform="scale(0.015625)" /><path
       id="m0eb6bba596"
       d="M 0,0 H 3.5"
       style="stroke:#000000;stroke-width:0.8" /><path
       id="CMR17-37"
       d="m 2886,3955 v 141 H 1382 c -748,0 -761,70 -787,192 H 480 L 294,3104 h 116 c 19,122 64,448 140,569 39,51 512,51 621,51 H 2579 L 1869,2670 C 1395,1961 1069,1003 1069,166 c 0,-77 0,-294 230,-294 231,0 231,217 231,300 v 294 c 0,1048 179,1738 473,2178 z"
       transform="scale(0.015625)" /><path
       id="CMMI12-70"
       d="m 275,-794 c -45,-187 -70,-237 -333,-237 -77,0 -141,0 -141,-121 0,-13 7,-64 77,-64 83,0 173,12 256,12 h 276 c 134,0 460,-12 595,-12 38,0 115,0 115,115 0,70 -45,70 -154,70 -294,0 -313,44 -313,94 0,74 288,1154 326,1301 71,-179 243,-428 576,-428 723,0 1504,938 1504,1877 0,587 -333,1003 -813,1003 -409,0 -755,-397 -825,-486 -51,319 -301,486 -557,486 -186,0 -333,-90 -454,-333 -116,-230 -205,-619 -205,-645 0,-25 25,-57 70,-57 51,0 58,6 96,153 96,377 218,753 474,753 147,0 198,-102 198,-293 0,-153 -19,-217 -45,-332 z m 1107,2786 c 45,178 224,364 327,453 70,64 281,242 525,242 281,0 409,-280 409,-612 C 2643,1768 2464,1047 2304,715 2144,370 1850,64 1555,64 c -435,0 -505,549 -505,574 0,19 12,70 19,102 z"
       transform="scale(0.015625)" /><path
       id="CMR17-28"
       d="m 1958,-1562 c 0,6 0,19 -19,38 -294,301 -1081,1121 -1081,3120 0,1999 774,2812 1088,3133 0,6 12,19 12,38 0,20 -19,33 -44,33 -71,0 -615,-475 -928,-1180 C 666,2909 576,2218 576,1603 c 0,-462 45,-1243 429,-2070 307,-666 832,-1133 909,-1133 32,0 44,12 44,38 z"
       transform="scale(0.015625)" /><path
       id="CMR17-29"
       d="m 1683,1596 c 0,461 -45,1243 -429,2069 -307,667 -832,1135 -908,1135 -20,0 -45,-7 -45,-39 0,-13 6,-19 13,-32 307,-321 1088,-1134 1088,-3126 0,-1999 -775,-2813 -1088,-3133 -7,-13 -13,-19 -13,-32 0,-32 25,-38 45,-38 70,0 614,473 928,1178 320,711 409,1403 409,2018 z"
       transform="scale(0.015625)" /><path
       id="m623e2b31c9"
       d="M 0,1.5 C 0.397805,1.5 0.77937,1.341951 1.06066,1.06066 1.341951,0.77937 1.5,0.397805 1.5,0 1.5,-0.397805 1.341951,-0.77937 1.06066,-1.06066 0.77937,-1.341951 0.397805,-1.5 0,-1.5 c -0.397805,0 -0.77937,0.158049 -1.06066,0.43934 C -1.341951,-0.77937 -1.5,-0.397805 -1.5,0 c 0,0.397805 0.158049,0.77937 0.43934,1.06066 C -0.77937,1.341951 -0.397805,1.5 0,1.5 Z"
       style="stroke:#000000;stroke-width:0.5" /><path
       id="m2597bd94d5"
       d="m 0,-1.5 -1.5,3 h 3 z"
       style="stroke:#000000;stroke-width:0.5;stroke-linejoin:miter" /><path
       id="m71dac4ba28"
       d="m 0,1.5 1.5,-3 h -3 z"
       style="stroke:#000000;stroke-width:0.5;stroke-linejoin:miter" /><path
       id="CMMI12-b"
       d="m 2963,1615 c 0,619 -352,1201 -1030,1201 C 1094,2816 256,1902 256,996 256,440 602,-64 1254,-64 c 397,0 871,153 1325,536 90,-357 288,-536 563,-536 346,0 519,357 519,440 0,58 -45,58 -64,58 -51,0 -58,-19 -77,-70 -58,-160 -205,-300 -358,-300 -199,0 -199,408 -199,798 653,779 807,1583 807,1589 0,58 -52,58 -71,58 -57,0 -64,-19 -89,-134 -84,-281 -250,-779 -647,-1303 z M 2560,625 C 1997,121 1491,64 1267,64 813,64 685,466 685,766 c 0,274 141,926 339,1277 262,447 621,644 909,644 621,0 621,-810 621,-1347 0,-159 -7,-325 -7,-485 0,-127 7,-159 13,-230 z"
       transform="scale(0.015625)" /><path
       id="CMR17-3d"
       d="m 4115,2048 c 96,0 192,0 192,108 0,116 -109,116 -217,116 H 512 c -109,0 -218,0 -218,-116 0,-108 96,-108 192,-108 z M 4090,927 c 108,0 217,0 217,116 0,109 -96,109 -192,109 H 486 c -96,0 -192,0 -192,-109 0,-116 109,-116 218,-116 z"
       transform="scale(0.015625)" /><path
       id="CMMI12-3a"
       d="M 1178,307 C 1178,492 1024,620 870,620 685,620 557,467 557,313 557,128 710,0 864,0 c 186,0 314,153 314,307 z"
       transform="scale(0.015625)" /><path
       id="CMR17-35"
       d="m 730,3750 c 64,-26 326,-109 595,-109 595,0 921,320 1107,499 0,51 0,84 -38,84 -7,0 -20,0 -71,-26 -224,-96 -486,-166 -806,-166 -192,0 -480,23 -794,159 -70,33 -83,33 -89,33 -32,0 -39,-7 -39,-134 V 2231 c 0,-118 0,-151 64,-151 32,0 45,13 77,59 205,296 486,421 806,421 224,0 704,-145 704,-1267 0,-206 0,-577 -192,-871 C 1894,159 1645,25 1370,25 947,25 518,319 403,812 c 26,-6 77,-19 103,-19 83,0 243,45 243,243 0,173 -122,244 -243,244 -148,0 -244,-90 -244,-269 0,-557 442,-1139 1120,-1139 660,0 1287,569 1287,1395 0,787 -499,1395 -1120,1395 -327,0 -602,-122 -819,-358 z"
       transform="scale(0.015625)" /><path
       id="CMR17-38"
       d="m 1741,2289 c 403,205 813,514 813,1009 0,586 -564,926 -1082,926 -582,0 -1094,-424 -1094,-1009 0,-161 38,-438 288,-682 64,-64 332,-257 505,-379 C 883,2006 211,1652 211,945 211,282 838,-128 1459,-128 c 685,0 1261,494 1261,1150 0,585 -390,855 -646,1029 z m -839,566 c -51,32 -307,231 -307,533 0,393 403,688 864,688 506,0 877,-360 877,-778 0,-598 -666,-939 -698,-939 -6,0 -12,0 -64,39 z M 2080,1536 c 96,-70 403,-283 403,-675 C 2483,385 2010,25 1472,25 890,25 448,443 448,951 c 0,508 390,933 832,1132 z"
       transform="scale(0.015625)" /><path
       id="mbb1277e64a"
       d="M 0,0 V 3.5"
       style="stroke:#000000;stroke-width:0.8" /><path
       id="m5a6570d216"
       d="M 0,0 H -3.5"
       style="stroke:#000000;stroke-width:0.8" /><clipPath
       id="p0d24cae5a9"><rect
         x="38.791031"
         y="0"
         width="149.80449"
         height="94.913864"
         id="rect8016" /></clipPath><clipPath
       id="p0f7a938b0f"><rect
         x="188.59552"
         y="0"
         width="149.80449"
         height="94.913864"
         id="rect8019" /></clipPath><clipPath
       id="p36be31bf14"><rect
         x="218.55641"
         y="37.965546"
         width="59.921795"
         height="37.965546"
         id="rect8022" /></clipPath><pattern
       patternUnits="userSpaceOnUse"
       width="15.302979"
       height="15.302979"
       patternTransform="translate(7.676263,56.027307)"
       id="pattern25774"><circle
         style="opacity:1;fill:#008000;fill-opacity:0.3;fill-rule:evenodd;stroke:#008000;stroke-width:1.33333;stroke-miterlimit:3.3;stroke-dasharray:none;paint-order:markers fill stroke;stop-color:#000000"
         id="path21458"
         cx="7.6514897"
         cy="7.6514897"
         r="6.9848228" /></pattern><pattern
       patternUnits="userSpaceOnUse"
       width="15.302979"
       height="15.302979"
       patternTransform="translate(7.6762628,56.027305)"
       id="pattern26759"><rect
         style="fill:url(#pattern26762);stroke:none"
         width="15.302979"
         height="15.302979"
         x="8.8817842e-16"
         y="0"
         id="rect25777" /></pattern><marker
       style="overflow:visible"
       id="TriangleStart-9"
       refX="0"
       refY="0"
       orient="auto-start-reverse"
       inkscape:stockid="TriangleStart"
       markerWidth="4.9916334"
       markerHeight="5.6666179"
       viewBox="0 0 4.9916334 5.6666178"
       inkscape:isstock="true"
       inkscape:collect="always"
       preserveAspectRatio="xMidYMid"><path
         transform="scale(0.5)"
         style="fill:context-stroke;fill-rule:evenodd;stroke:context-stroke;stroke-width:1pt"
         d="M 5.77,0 -2.88,5 V -5 Z"
         id="path135-8" /></marker><marker
       style="overflow:visible"
       id="marker28725-3"
       refX="0"
       refY="0"
       orient="auto-start-reverse"
       inkscape:stockid="TriangleStart"
       markerWidth="4.9916334"
       markerHeight="5.6666179"
       viewBox="0 0 4.9916334 5.6666178"
       inkscape:isstock="true"
       inkscape:collect="always"
       preserveAspectRatio="xMidYMid"><path
         transform="scale(0.5)"
         style="fill:context-stroke;fill-rule:evenodd;stroke:context-stroke;stroke-width:1pt"
         d="M 5.77,0 -2.88,5 V -5 Z"
         id="path28723-8" /></marker><marker
       style="overflow:visible"
       id="TriangleStart-2"
       refX="0"
       refY="0"
       orient="auto-start-reverse"
       inkscape:stockid="TriangleStart"
       markerWidth="4.9916334"
       markerHeight="5.6666179"
       viewBox="0 0 4.9916334 5.6666178"
       inkscape:isstock="true"
       inkscape:collect="always"
       preserveAspectRatio="xMidYMid"><path
         transform="scale(0.5)"
         style="fill:context-stroke;fill-rule:evenodd;stroke:context-stroke;stroke-width:1pt"
         d="M 5.77,0 -2.88,5 V -5 Z"
         id="path135-2" /></marker><marker
       style="overflow:visible"
       id="marker28725-2"
       refX="0"
       refY="0"
       orient="auto-start-reverse"
       inkscape:stockid="TriangleStart"
       markerWidth="4.9916334"
       markerHeight="5.6666179"
       viewBox="0 0 4.9916334 5.6666178"
       inkscape:isstock="true"
       inkscape:collect="always"
       preserveAspectRatio="xMidYMid"><path
         transform="scale(0.5)"
         style="fill:context-stroke;fill-rule:evenodd;stroke:context-stroke;stroke-width:1pt"
         d="M 5.77,0 -2.88,5 V -5 Z"
         id="path28723-7" /></marker><marker
       style="overflow:visible"
       id="TriangleStart-3"
       refX="0"
       refY="0"
       orient="auto-start-reverse"
       inkscape:stockid="TriangleStart"
       markerWidth="4.9916334"
       markerHeight="5.6666179"
       viewBox="0 0 4.9916334 5.6666178"
       inkscape:isstock="true"
       inkscape:collect="always"
       preserveAspectRatio="xMidYMid"><path
         transform="scale(0.5)"
         style="fill:context-stroke;fill-rule:evenodd;stroke:context-stroke;stroke-width:1pt"
         d="M 5.77,0 -2.88,5 V -5 Z"
         id="path135-4" /></marker><marker
       style="overflow:visible"
       id="marker28725-6"
       refX="0"
       refY="0"
       orient="auto-start-reverse"
       inkscape:stockid="TriangleStart"
       markerWidth="4.9916334"
       markerHeight="5.6666179"
       viewBox="0 0 4.9916334 5.6666178"
       inkscape:isstock="true"
       inkscape:collect="always"
       preserveAspectRatio="xMidYMid"><path
         transform="scale(0.5)"
         style="fill:context-stroke;fill-rule:evenodd;stroke:context-stroke;stroke-width:1pt"
         d="M 5.77,0 -2.88,5 V -5 Z"
         id="path28723-3" /></marker><marker
       style="overflow:visible"
       id="TriangleStart-9-6"
       refX="0"
       refY="0"
       orient="auto-start-reverse"
       inkscape:stockid="TriangleStart"
       markerWidth="4.9916334"
       markerHeight="5.6666179"
       viewBox="0 0 4.9916334 5.6666178"
       inkscape:isstock="true"
       inkscape:collect="always"
       preserveAspectRatio="xMidYMid"><path
         transform="scale(0.5)"
         style="fill:context-stroke;fill-rule:evenodd;stroke:context-stroke;stroke-width:1pt"
         d="M 5.77,0 -2.88,5 V -5 Z"
         id="path135-8-3" /></marker><marker
       style="overflow:visible"
       id="marker28725-3-3"
       refX="0"
       refY="0"
       orient="auto-start-reverse"
       inkscape:stockid="TriangleStart"
       markerWidth="4.9916334"
       markerHeight="5.6666179"
       viewBox="0 0 4.9916334 5.6666178"
       inkscape:isstock="true"
       inkscape:collect="always"
       preserveAspectRatio="xMidYMid"><path
         transform="scale(0.5)"
         style="fill:context-stroke;fill-rule:evenodd;stroke:context-stroke;stroke-width:1pt"
         d="M 5.77,0 -2.88,5 V -5 Z"
         id="path28723-8-4" /></marker><marker
       style="overflow:visible"
       id="TriangleStart-2-4"
       refX="0"
       refY="0"
       orient="auto-start-reverse"
       inkscape:stockid="TriangleStart"
       markerWidth="4.9916334"
       markerHeight="5.6666179"
       viewBox="0 0 4.9916334 5.6666178"
       inkscape:isstock="true"
       inkscape:collect="always"
       preserveAspectRatio="xMidYMid"><path
         transform="scale(0.5)"
         style="fill:context-stroke;fill-rule:evenodd;stroke:context-stroke;stroke-width:1pt"
         d="M 5.77,0 -2.88,5 V -5 Z"
         id="path135-2-3" /></marker><marker
       style="overflow:visible"
       id="marker28725-2-9"
       refX="0"
       refY="0"
       orient="auto-start-reverse"
       inkscape:stockid="TriangleStart"
       markerWidth="4.9916334"
       markerHeight="5.6666179"
       viewBox="0 0 4.9916334 5.6666178"
       inkscape:isstock="true"
       inkscape:collect="always"
       preserveAspectRatio="xMidYMid"><path
         transform="scale(0.5)"
         style="fill:context-stroke;fill-rule:evenodd;stroke:context-stroke;stroke-width:1pt"
         d="M 5.77,0 -2.88,5 V -5 Z"
         id="path28723-7-7" /></marker><clipPath
       clipPathUnits="userSpaceOnUse"
       id="clipPath4704"><path
         d="M -1021,-463 H 1794 V 1233 H -1021 Z"
         id="path4702" /></clipPath><clipPath
       clipPathUnits="userSpaceOnUse"
       id="clipPath4752"><path
         d="M -1021,-463 H 1794 V 1233 H -1021 Z"
         id="path4750" /></clipPath><clipPath
       clipPathUnits="userSpaceOnUse"
       id="clipPath4808"><path
         d="M 90,90 H 648 V 633.6 H 90 Z"
         id="path4806" /></clipPath><clipPath
       clipPathUnits="userSpaceOnUse"
       id="clipPath4818"><path
         d="M 90,90 H 648 V 633.6 H 90 Z"
         id="path4816" /></clipPath><clipPath
       clipPathUnits="userSpaceOnUse"
       id="clipPath4828"><path
         d="M 90,90 H 648 V 633.6 H 90 Z"
         id="path4826" /></clipPath><clipPath
       clipPathUnits="userSpaceOnUse"
       id="clipPath4838"><path
         d="M 90,90 H 648 V 633.6 H 90 Z"
         id="path4836" /></clipPath><clipPath
       clipPathUnits="userSpaceOnUse"
       id="clipPath4848"><path
         d="M 90,90 H 648 V 633.6 H 90 Z"
         id="path4846" /></clipPath><clipPath
       clipPathUnits="userSpaceOnUse"
       id="clipPath4858"><path
         d="M 90,90 H 648 V 633.6 H 90 Z"
         id="path4856" /></clipPath><clipPath
       clipPathUnits="userSpaceOnUse"
       id="clipPath4868"><path
         d="M 90,90 H 648 V 633.6 H 90 Z"
         id="path4866" /></clipPath><clipPath
       clipPathUnits="userSpaceOnUse"
       id="clipPath4878"><path
         d="M 90,90 H 648 V 633.6 H 90 Z"
         id="path4876" /></clipPath><clipPath
       clipPathUnits="userSpaceOnUse"
       id="clipPath4888"><path
         d="M 90,90 H 648 V 633.6 H 90 Z"
         id="path4886-3" /></clipPath><clipPath
       clipPathUnits="userSpaceOnUse"
       id="clipPath4898"><path
         d="M 90,90 H 648 V 633.6 H 90 Z"
         id="path4896" /></clipPath><clipPath
       clipPathUnits="userSpaceOnUse"
       id="clipPath4908"><path
         d="M 90,90 H 648 V 633.6 H 90 Z"
         id="path4906" /></clipPath><clipPath
       clipPathUnits="userSpaceOnUse"
       id="clipPath4966"><path
         d="M -1021,-463 H 1794 V 1233 H -1021 Z"
         id="path4964" /></clipPath><clipPath
       clipPathUnits="userSpaceOnUse"
       id="clipPath4986"><path
         d="M -1021,-463 H 1794 V 1233 H -1021 Z"
         id="path4984" /></clipPath><clipPath
       clipPathUnits="userSpaceOnUse"
       id="clipPath5006"><path
         d="M -1021,-463 H 1794 V 1233 H -1021 Z"
         id="path5004" /></clipPath><clipPath
       clipPathUnits="userSpaceOnUse"
       id="clipPath5026"><path
         d="M -1021,-463 H 1794 V 1233 H -1021 Z"
         id="path5024" /></clipPath><clipPath
       clipPathUnits="userSpaceOnUse"
       id="clipPath5046"><path
         d="M -1021,-463 H 1794 V 1233 H -1021 Z"
         id="path5044" /></clipPath><clipPath
       clipPathUnits="userSpaceOnUse"
       id="clipPath4676-6"><path
         d="M -1021,-463 H 1794 V 1233 H -1021 Z"
         id="path4674-2" /></clipPath></defs><g
     inkscape:label="Layer 1"
     inkscape:groupmode="layer"
     id="layer1"
     transform="translate(-4.8117524,-14.811154)"><g
       id="g28315"
       transform="matrix(4.1561901,0,0,4.1561901,-2.1481533,-43.128432)"><rect
         style="fill:url(#pattern26766);stroke:none;stroke-width:0.264583"
         width="4.0489135"
         height="4.0489135"
         x="3.4025815"
         y="27.580671"
         id="use28280"
         class="UnoptimicedTransforms"
         transform="translate(0.18361711,-0.48773673)"
         inkscape:tile-x0="2.2146281"
         inkscape:tile-y0="14.336153" /><rect
         style="fill:url(#pattern26766);stroke:none;stroke-width:0.264583"
         width="4.0489135"
         height="4.0489135"
         x="3.4025815"
         y="27.580671"
         id="use28282"
         class="UnoptimicedTransforms"
         transform="translate(8.2814436,-0.48773669)"
         inkscape:tile-x0="2.2146281"
         inkscape:tile-y0="14.336153" /><rect
         style="fill:url(#pattern26766);stroke:none;stroke-width:0.264583"
         width="4.0489135"
         height="4.0489135"
         x="3.4025815"
         y="27.580671"
         id="use28284"
         class="UnoptimicedTransforms"
         transform="translate(16.37927,-0.48773669)"
         inkscape:tile-x0="2.2146281"
         inkscape:tile-y0="14.336153" /><rect
         style="fill:url(#pattern26766);stroke:none;stroke-width:0.264583"
         width="4.0489135"
         height="4.0489135"
         x="3.4025815"
         y="27.580671"
         id="use28286"
         class="UnoptimicedTransforms"
         transform="translate(24.477096,-0.48773669)"
         inkscape:tile-x0="2.2146281"
         inkscape:tile-y0="14.336153" /><rect
         style="fill:url(#pattern26766);stroke:none;stroke-width:0.264583"
         width="4.0489135"
         height="4.0489135"
         x="3.4025815"
         y="27.580671"
         id="use28288"
         class="UnoptimicedTransforms"
         transform="translate(32.574923,-0.48773669)"
         inkscape:tile-x0="2.2146281"
         inkscape:tile-y0="14.336153" /><rect
         style="fill:url(#pattern26766);stroke:none;stroke-width:0.264583"
         width="4.0489135"
         height="4.0489135"
         x="3.4025815"
         y="27.580671"
         id="use28290"
         class="UnoptimicedTransforms"
         transform="translate(40.672749,-0.48773669)"
         inkscape:tile-x0="2.2146281"
         inkscape:tile-y0="14.336153" /><rect
         style="fill:url(#pattern26766);stroke:none;stroke-width:0.264583"
         width="4.0489135"
         height="4.0489135"
         x="3.4025815"
         y="27.580671"
         id="use28292"
         class="UnoptimicedTransforms"
         transform="translate(48.770576,-0.48773669)"
         inkscape:tile-x0="2.2146281"
         inkscape:tile-y0="14.336153" /></g><g
       id="g29378"
       style="stroke:#0000ff"
       transform="matrix(4.1561901,0,0,4.1561901,-8.5888589,-59.942724)"><path
         style="fill:none;stroke:#0000ff;stroke-width:0.264583px;stroke-linecap:butt;stroke-linejoin:miter;stroke-opacity:1;marker-start:url(#TriangleStart);marker-end:url(#marker28725)"
         d="m 31.286976,30.272838 c -0.0012,-8.742785 16.235291,-9.733923 16.236773,-0.139878"
         id="path28427"
         sodipodi:nodetypes="cc" /><path
         style="fill:none;stroke:#0000ff;stroke-width:0.264583px;stroke-linecap:butt;stroke-linejoin:miter;stroke-opacity:1;marker-start:url(#TriangleStart-9);marker-end:url(#marker28725-3)"
         d="m 31.286976,30.272838 c -0.0017,-11.254231 24.47242,-13.170934 24.441734,-0.08496"
         id="path28427-5"
         sodipodi:nodetypes="cc" /><path
         style="fill:none;stroke:#0000ff;stroke-width:0.264583px;stroke-linecap:butt;stroke-linejoin:miter;stroke-opacity:1;marker-start:url(#TriangleStart-2);marker-end:url(#marker28725-2)"
         d="m 31.286976,30.272838 c 0,-4.903975 8.011542,-5.061 8.011542,-0.09811"
         id="path28427-0"
         sodipodi:nodetypes="cc" /></g><g
       id="g29297"
       transform="matrix(4.1561901,0,0,4.1561901,-200.40358,-76.395974)"
       style="stroke:#0000ff"><path
         style="fill:none;stroke:#0000ff;stroke-width:0.264583px;stroke-linecap:butt;stroke-linejoin:miter;stroke-opacity:1;marker-start:url(#TriangleStart-3);marker-end:url(#marker28725-6)"
         d="M 77.441451,34.231572 C 77.442651,25.488787 61.20616,24.497649 61.204678,34.091695"
         id="path28427-2"
         sodipodi:nodetypes="cc" /><path
         style="fill:none;stroke:#0000ff;stroke-width:0.264583px;stroke-linecap:butt;stroke-linejoin:miter;stroke-opacity:1;marker-start:url(#TriangleStart-9-6);marker-end:url(#marker28725-3-3)"
         d="m 77.441451,34.231572 c 0.0017,-11.254231 -24.47242,-13.170934 -24.441734,-0.08496"
         id="path28427-5-5"
         sodipodi:nodetypes="cc" /><path
         style="fill:none;stroke:#0000ff;stroke-width:0.264583px;stroke-linecap:butt;stroke-linejoin:miter;stroke-opacity:1;marker-start:url(#TriangleStart-2-4);marker-end:url(#marker28725-2-9)"
         d="m 77.441451,34.231572 c 0,-4.903975 -8.011542,-5.061 -8.011542,-0.09811"
         id="path28427-0-8"
         sodipodi:nodetypes="cc" /></g><path
       style="opacity:1;fill:#ff6600;fill-opacity:0.3;fill-rule:evenodd;stroke:#ff6600;stroke-width:1.46621;stroke-miterlimit:3.3;stroke-dasharray:none;paint-order:markers fill stroke;stop-color:#000000"
       id="path59345"
       sodipodi:type="arc"
       sodipodi:cx="-18.447453"
       sodipodi:cy="-139.83336"
       sodipodi:rx="12.9026"
       sodipodi:ry="26.394382"
       sodipodi:start="0.00088328438"
       sodipodi:end="3.1319985"
       sodipodi:arc-type="arc"
       d="m -5.5448573,-139.81005 a 12.9026,26.394382 0 0 1 -12.8463987,26.37082 12.9026,26.394382 0 0 1 -12.958203,-26.1409"
       sodipodi:open="true"
       transform="scale(-1)"
       inkscape:tile-cx="5.1334295"
       inkscape:tile-cy="28.957204"
       inkscape:tile-w="6.56149"
       inkscape:tile-h="6.5214771"
       inkscape:tile-x0="1.8526836"
       inkscape:tile-y0="25.608308" /><use
       x="0"
       y="0"
       inkscape:tiled-clone-of="#path59345"
       xlink:href="#path59345"
       transform="translate(34.088499)"
       id="use59641" /><use
       x="0"
       y="0"
       inkscape:tiled-clone-of="#path59345"
       xlink:href="#path59345"
       transform="translate(68.176999)"
       id="use59643" /><use
       x="0"
       y="0"
       inkscape:tiled-clone-of="#path59345"
       xlink:href="#path59345"
       transform="translate(102.2655)"
       id="use59645" /><use
       x="0"
       y="0"
       inkscape:tiled-clone-of="#path59345"
       xlink:href="#path59345"
       transform="translate(136.354)"
       id="use59647" /><use
       x="0"
       y="0"
       inkscape:tiled-clone-of="#path59345"
       xlink:href="#path59345"
       transform="translate(170.4425)"
       id="use59649" /><use
       x="0"
       y="0"
       inkscape:tiled-clone-of="#path59345"
       xlink:href="#path59345"
       transform="translate(204.531)"
       id="use59651" /><path
       style="opacity:1;fill:none;fill-opacity:0.3;fill-rule:evenodd;stroke:#ff6600;stroke-width:1.09966;stroke-miterlimit:3.3;stroke-dasharray:none;marker-start:url(#marker28725);marker-end:url(#marker77930);paint-order:markers fill stroke;stop-color:#000000"
       d="m 17.831569,109.20413 c -0.25719,-0.28501 -0.508108,-0.56866 -0.615079,-0.82084 -0.106972,-0.2522 -0.06358,-0.47148 0.120667,-0.65999 0.184248,-0.18849 0.503082,-0.34763 0.809924,-0.50932 0.306848,-0.16176 0.589409,-0.32871 0.719887,-0.529 0.130475,-0.20025 0.103622,-0.43494 -0.05372,-0.69813 -0.157341,-0.26316 -0.437799,-0.55328 -0.688408,-0.83685 -0.250613,-0.28358 -0.459226,-0.55798 -0.509392,-0.79774 -0.05017,-0.23973 0.06212,-0.444 0.293003,-0.62231 0.230881,-0.17831 0.57196,-0.33258 0.865688,-0.49713 0.293726,-0.16459 0.52823,-0.34206 0.599786,-0.55525 0.07157,-0.21317 -0.02257,-0.46258 -0.221986,-0.73496 -0.199422,-0.2724 -0.494837,-0.56577 -0.725952,-0.84507 -0.231109,-0.27934 -0.386463,-0.54208 -0.376284,-0.76864 0.01018,-0.22656 0.187323,-0.416627 0.455239,-0.586848 0.267916,-0.170238 0.616491,-0.322811 0.884567,-0.492999 0.268079,-0.170196 0.444753,-0.360342 0.45524,-0.58685 0.01047,-0.226471 -0.145305,-0.48935 -0.376289,-0.768637 -0.230985,-0.279296 -0.526339,-0.572644 -0.725952,-0.845074 -0.199605,-0.272439 -0.293244,-0.521685 -0.22199,-0.734902 0.07125,-0.213213 0.306157,-0.39064 0.59979,-0.55525 0.293631,-0.164586 0.634595,-0.318863 0.865684,-0.497126 0.231093,-0.178259 0.342878,-0.382578 0.293003,-0.622315 -0.04987,-0.239688 -0.258839,-0.514225 -0.509384,-0.797797 -0.250548,-0.283577 -0.530834,-0.573621 -0.688411,-0.836866 -0.157577,-0.263253 -0.183911,-0.497783 -0.05372,-0.698111 0.130188,-0.20037 0.413075,-0.367283 0.719886,-0.529 0.306806,-0.161759 0.625423,-0.320858 0.809922,-0.509312 0.184497,-0.188442 0.227369,-0.407847 0.120667,-0.65999 -0.106702,-0.252115 -0.35789,-0.535825 -0.61508,-0.82084"
       title="t sin(5*t)"
       id="path76114"
       inkscape:tile-cx="6.8412414"
       inkscape:tile-cy="22.429842"
       inkscape:tile-w="2.0148751"
       inkscape:tile-h="6.3738089"
       inkscape:tile-x0="5.8231699"
       inkscape:tile-y0="19.243472" /><use
       x="0"
       y="0"
       inkscape:tiled-clone-of="#path76114"
       xlink:href="#path76114"
       id="use91804" /><use
       x="0"
       y="0"
       inkscape:tiled-clone-of="#path76114"
       xlink:href="#path76114"
       transform="translate(33.748042)"
       id="use91806" /><use
       x="0"
       y="0"
       inkscape:tiled-clone-of="#path76114"
       xlink:href="#path76114"
       transform="translate(67.496082)"
       id="use91808" /><use
       x="0"
       y="0"
       inkscape:tiled-clone-of="#path76114"
       xlink:href="#path76114"
       transform="translate(101.24413)"
       id="use91810" /><use
       x="0"
       y="0"
       inkscape:tiled-clone-of="#path76114"
       xlink:href="#path76114"
       transform="translate(134.99217)"
       id="use91812" /><use
       x="0"
       y="0"
       inkscape:tiled-clone-of="#path76114"
       xlink:href="#path76114"
       transform="translate(168.74021)"
       id="use91814" /><use
       x="0"
       y="0"
       inkscape:tiled-clone-of="#path76114"
       xlink:href="#path76114"
       transform="translate(202.48825)"
       id="use91816" /><g
       transform="matrix(2.0811207,0,0,2.0811207,112.85376,14.810374)"
       ns3:version="1.9.0"
       ns3:texconverter="pdflatex"
       ns3:pdfconverter="inkscape"
       ns3:text="\\color{blue}\n$\\frac{J}{r^\\alpha}$"
       ns3:preamble="/usr/share/inkscape/extensions/textext/default_packages.tex"
       ns3:scale="1.419385534245333"
       ns3:alignment="middle center"
       ns3:stroke-to-path="0"
       ns3:inkscapeversion="1.3"
       id="g59039"
       ns3:jacobian_sqrt="0.500728"><defs
   id="id-9f6496cc-e7e1-420d-9073-1f59795a14c4">&#10;    <g
   id="id-c6331cf5-ee57-48ab-9ed1-8993f630432a">&#10;      <g
   id="id-e80014db-fb8e-4365-955c-696ff3470dfc">&#10;        <path
   d="m 4.15625,-4.21875 c 0.0625,-0.25 0.078125,-0.296875 0.46875,-0.296875 0.078125,0 0.171875,0 0.171875,-0.140625 0,-0.078125 -0.046875,-0.109375 -0.09375,-0.109375 -0.171875,0 -0.59375,0.03125 -0.765625,0.03125 -0.140625,0 -0.375,0 -0.53125,0 -0.171875,-0.015625 -0.375,-0.03125 -0.546875,-0.03125 -0.046875,0 -0.15625,0 -0.15625,0.15625 0,0.09375 0.0625,0.09375 0.265625,0.09375 0.171875,0 0.1875,0 0.375,0.015625 0.203125,0.03125 0.21875,0.046875 0.21875,0.125 0,0.046875 0,0.0625 -0.03125,0.171875 l -0.796875,3.1875 C 2.59375,-0.5 2.15625,-0.0625 1.703125,-0.0625 1.609375,-0.0625 1.15625,-0.078125 1,-0.421875 c 0.40625,0 0.5,-0.328125 0.5,-0.453125 0,-0.1875 -0.171875,-0.296875 -0.328125,-0.296875 -0.1875,0 -0.46875,0.15625 -0.46875,0.546875 0,0.453125 0.4375,0.765625 1.015625,0.765625 0.6875,0 1.453125,-0.4375 1.640625,-1.140625 z m 0,0"
   id="id-0828d24c-6aba-4779-b73f-68e125ee4172" />&#10;      </g>&#10;      <g
   id="id-c483dbda-bc89-4dfb-8417-eb77e340b032">&#10;        <path
   d="m 1.640625,-1.40625 c 0,-0.046875 0.171875,-0.671875 0.171875,-0.703125 0.015625,-0.0625 0.21875,-0.40625 0.453125,-0.578125 0.0625,-0.046875 0.25,-0.1875 0.5625,-0.1875 0.0625,0 0.234375,0 0.375,0.09375 -0.21875,0.0625 -0.296875,0.265625 -0.296875,0.390625 0,0.140625 0.109375,0.25 0.265625,0.25 0.171875,0 0.390625,-0.125 0.390625,-0.421875 0,-0.359375 -0.375,-0.515625 -0.734375,-0.515625 -0.359375,0 -0.671875,0.15625 -0.984375,0.5 -0.125,-0.421875 -0.546875,-0.5 -0.71875,-0.5 -0.25,0 -0.421875,0.171875 -0.546875,0.359375 -0.15625,0.265625 -0.25,0.671875 -0.25,0.71875 0,0.078125 0.09375,0.078125 0.125,0.078125 0.09375,0 0.09375,-0.015625 0.140625,-0.203125 0.109375,-0.421875 0.25,-0.75 0.515625,-0.75 0.1875,0 0.234375,0.15625 0.234375,0.34375 0,0.125 -0.0625,0.390625 -0.125,0.578125 -0.046875,0.1875 -0.109375,0.46875 -0.140625,0.625 L 0.84375,-0.4375 C 0.828125,-0.34375 0.78125,-0.171875 0.78125,-0.15625 0.78125,0 0.90625,0.0625 1.015625,0.0625 1.125,0.0625 1.265625,0 1.3125,-0.125 1.328125,-0.171875 1.40625,-0.484375 1.453125,-0.65625 Z m 0,0"
   id="id-18ecdadc-cb78-4c6e-9516-0b43b963b2c3" />&#10;      </g>&#10;      <g
   id="id-5a689f23-7450-4682-8514-7e9c440423c5">&#10;        <path
   d="m 3.265625,-0.703125 c 0.4375,-0.390625 0.671875,-1.078125 0.671875,-1.1875 0,-0.0625 -0.0625,-0.0625 -0.09375,-0.0625 C 3.75,-1.953125 3.75,-1.9375 3.71875,-1.84375 3.609375,-1.4375 3.375,-1.109375 3.25,-0.953125 c -0.015625,-0.125 -0.015625,-0.125 -0.03125,-0.265625 -0.0625,-0.75 -0.65625,-0.984375 -1.109375,-0.984375 -0.828125,0 -1.578125,0.671875 -1.578125,1.34375 0,0.515625 0.40625,0.921875 1.046875,0.921875 C 1.828125,0.0625 2.3125,0 2.875,-0.375 2.953125,-0.15625 3.15625,0.0625 3.46875,0.0625 3.8125,0.0625 4,-0.1875 4,-0.296875 4,-0.375 3.9375,-0.375 3.890625,-0.375 c -0.0625,0 -0.078125,0 -0.109375,0.078125 -0.0625,0.15625 -0.25,0.1875 -0.296875,0.1875 -0.09375,0 -0.1875,-0.09375 -0.21875,-0.59375 z m -0.4375,0.140625 c -0.1875,0.140625 -0.65625,0.453125 -1.234375,0.453125 -0.3125,0 -0.609375,-0.15625 -0.609375,-0.59375 0,-0.15625 0.078125,-0.625 0.328125,-0.9375 0.171875,-0.21875 0.46875,-0.390625 0.78125,-0.390625 0.515625,0 0.640625,0.5 0.671875,0.796875 0.015625,0.109375 0.03125,0.375 0.0625,0.671875 z m 0,0"
   id="id-4f6b9151-a139-40ad-893c-4ce77ab6aae0" />&#10;      </g>&#10;    </g>&#10;  </defs>&#10;  <g
   fill="#0000ff"
   fill-opacity="1"
   id="id-c45e3541-de77-48fb-9342-3f3270484c94"
   transform="translate(-149.906,-126.076)">&#10;    <g
   transform="translate(151.856,130.842)"
   id="g5405"><path
   d="m 4.15625,-4.21875 c 0.0625,-0.25 0.078125,-0.296875 0.46875,-0.296875 0.078125,0 0.171875,0 0.171875,-0.140625 0,-0.078125 -0.046875,-0.109375 -0.09375,-0.109375 -0.171875,0 -0.59375,0.03125 -0.765625,0.03125 -0.140625,0 -0.375,0 -0.53125,0 -0.171875,-0.015625 -0.375,-0.03125 -0.546875,-0.03125 -0.046875,0 -0.15625,0 -0.15625,0.15625 0,0.09375 0.0625,0.09375 0.265625,0.09375 0.171875,0 0.1875,0 0.375,0.015625 0.203125,0.03125 0.21875,0.046875 0.21875,0.125 0,0.046875 0,0.0625 -0.03125,0.171875 l -0.796875,3.1875 C 2.59375,-0.5 2.15625,-0.0625 1.703125,-0.0625 1.609375,-0.0625 1.15625,-0.078125 1,-0.421875 c 0.40625,0 0.5,-0.328125 0.5,-0.453125 0,-0.1875 -0.171875,-0.296875 -0.328125,-0.296875 -0.1875,0 -0.46875,0.15625 -0.46875,0.546875 0,0.453125 0.4375,0.765625 1.015625,0.765625 0.6875,0 1.453125,-0.4375 1.640625,-1.140625 z m 0,0"
   id="id-ac2699dd-454a-42d8-a6af-36e1467ffb45" />&#10;      </g></g>&#10;  <path
   fill="none"
   stroke-width="0.398"
   stroke-linecap="butt"
   stroke-linejoin="miter"
   stroke="#0000ff"
   stroke-opacity="1"
   stroke-miterlimit="10"
   d="M 0,6.1970673 H 8.960937"
   id="id-2fba7b6e-6b1c-4765-bc96-57dcd595075b" />&#10;  <g
   fill="#0000ff"
   fill-opacity="1"
   id="id-42d64146-c9ea-42d5-91a5-8b6d7cffdac0"
   transform="translate(-149.906,-126.076)">&#10;    <g
   transform="translate(149.908,138.2)"
   id="g2179"><path
   d="m 1.640625,-1.40625 c 0,-0.046875 0.171875,-0.671875 0.171875,-0.703125 0.015625,-0.0625 0.21875,-0.40625 0.453125,-0.578125 0.0625,-0.046875 0.25,-0.1875 0.5625,-0.1875 0.0625,0 0.234375,0 0.375,0.09375 -0.21875,0.0625 -0.296875,0.265625 -0.296875,0.390625 0,0.140625 0.109375,0.25 0.265625,0.25 0.171875,0 0.390625,-0.125 0.390625,-0.421875 0,-0.359375 -0.375,-0.515625 -0.734375,-0.515625 -0.359375,0 -0.671875,0.15625 -0.984375,0.5 -0.125,-0.421875 -0.546875,-0.5 -0.71875,-0.5 -0.25,0 -0.421875,0.171875 -0.546875,0.359375 -0.15625,0.265625 -0.25,0.671875 -0.25,0.71875 0,0.078125 0.09375,0.078125 0.125,0.078125 0.09375,0 0.09375,-0.015625 0.140625,-0.203125 0.109375,-0.421875 0.25,-0.75 0.515625,-0.75 0.1875,0 0.234375,0.15625 0.234375,0.34375 0,0.125 -0.0625,0.390625 -0.125,0.578125 -0.046875,0.1875 -0.109375,0.46875 -0.140625,0.625 L 0.84375,-0.4375 C 0.828125,-0.34375 0.78125,-0.171875 0.78125,-0.15625 0.78125,0 0.90625,0.0625 1.015625,0.0625 1.125,0.0625 1.265625,0 1.3125,-0.125 1.328125,-0.171875 1.40625,-0.484375 1.453125,-0.65625 Z m 0,0"
   id="id-e26fc609-edc7-411f-b532-6f6d8f846156" />&#10;      </g></g>&#10;  <g
   fill="#0000ff"
   fill-opacity="1"
   id="id-a5318b30-adbd-4d22-ab9e-37d6a3cd27fc"
   transform="translate(-149.906,-126.076)">&#10;    <g
   transform="translate(153.821,136.208)"
   id="g824"><path
   d="m 3.265625,-0.703125 c 0.4375,-0.390625 0.671875,-1.078125 0.671875,-1.1875 0,-0.0625 -0.0625,-0.0625 -0.09375,-0.0625 C 3.75,-1.953125 3.75,-1.9375 3.71875,-1.84375 3.609375,-1.4375 3.375,-1.109375 3.25,-0.953125 c -0.015625,-0.125 -0.015625,-0.125 -0.03125,-0.265625 -0.0625,-0.75 -0.65625,-0.984375 -1.109375,-0.984375 -0.828125,0 -1.578125,0.671875 -1.578125,1.34375 0,0.515625 0.40625,0.921875 1.046875,0.921875 C 1.828125,0.0625 2.3125,0 2.875,-0.375 2.953125,-0.15625 3.15625,0.0625 3.46875,0.0625 3.8125,0.0625 4,-0.1875 4,-0.296875 4,-0.375 3.9375,-0.375 3.890625,-0.375 c -0.0625,0 -0.078125,0 -0.109375,0.078125 -0.0625,0.15625 -0.25,0.1875 -0.296875,0.1875 -0.09375,0 -0.1875,-0.09375 -0.21875,-0.59375 z m -0.4375,0.140625 c -0.1875,0.140625 -0.65625,0.453125 -1.234375,0.453125 -0.3125,0 -0.609375,-0.15625 -0.609375,-0.59375 0,-0.15625 0.078125,-0.625 0.328125,-0.9375 0.171875,-0.21875 0.46875,-0.390625 0.78125,-0.390625 0.515625,0 0.640625,0.5 0.671875,0.796875 0.015625,0.109375 0.03125,0.375 0.0625,0.671875 z m 0,0"
   id="id-699d75db-bfa4-4fd1-a491-2227146ac7f0" />&#10;      </g></g>&#10;</g><g
       transform="matrix(1.4662124,0,0,1.4662124,105.29227,93.81636)"
       ns3:version="1.9.0"
       ns3:texconverter="pdflatex"
       ns3:pdfconverter="inkscape"
       ns3:text="$\\gamma$"
       ns3:preamble="/usr/share/inkscape/extensions/textext/default_packages.tex"
       ns3:scale="1.0"
       ns3:alignment="middle center"
       ns3:stroke-to-path="0"
       ns3:inkscapeversion="1.3"
       id="g91016"
       ns3:jacobian_sqrt="0.352778"
       style="fill:#ff6600;stroke-width:0"><defs
   id="id-b6e37393-ee86-45d2-aafa-d0196a922b8c"
   style="fill:#ff6600;stroke-width:0">&#10;    <g
   id="id-1ffd3b2c-e66e-4dcf-b88a-f9103b98ddee"
   style="fill:#ff6600;stroke-width:0">&#10;      <g
   id="id-216292e2-6a0a-4b4f-87d2-2a6d7c7c85c4"
   style="fill:#ff6600;stroke-width:0">&#10;        <path
   d="M 0.40625,-2.53125 C 0.796875,-3.671875 1.890625,-3.6875 2,-3.6875 c 1.5,0 1.609375,1.75 1.609375,2.53125 0,0.609375 -0.046875,0.78125 -0.125,0.984375 -0.21875,0.71875 -0.515625,1.875 -0.515625,2.140625 0,0.109375 0.046875,0.171875 0.125,0.171875 0.140625,0 0.21875,-0.21875 0.328125,-0.59375 C 3.65625,0.703125 3.75,0.140625 3.78125,-0.171875 c 0.03125,-0.125 0.046875,-0.25 0.09375,-0.390625 0.3125,-0.984375 0.953125,-2.46875 1.34375,-3.25 0.078125,-0.125 0.1875,-0.34375 0.1875,-0.390625 0,-0.09375 -0.09375,-0.09375 -0.109375,-0.09375 -0.03125,0 -0.09375,0 -0.125,0.0625 C 4.65625,-3.28125 4.25,-2.28125 3.859375,-1.28125 3.84375,-1.578125 3.84375,-2.34375 3.453125,-3.3125 3.203125,-3.921875 2.8125,-4.40625 2.125,-4.40625 c -1.25,0 -1.953125,1.515625 -1.953125,1.828125 0,0.09375 0.09375,0.09375 0.203125,0.09375 z m 0,0"
   id="id-5bc2a818-9b73-49b1-bc9a-1c44ca3963d6"
   style="fill:#ff6600;stroke-width:0" />&#10;      </g>&#10;    </g>&#10;  </defs>&#10;  <g
   fill-opacity="1"
   id="id-82a40b4f-d73f-4023-b258-94e86f72dd14"
   transform="translate(-148.884,-130.359)"
   style="fill:#ff6600;stroke-width:0">&#10;    <g
   transform="translate(148.712,134.765)"
   id="g5891"
   style="fill:#ff6600;stroke-width:0"><path
   d="M 0.40625,-2.53125 C 0.796875,-3.671875 1.890625,-3.6875 2,-3.6875 c 1.5,0 1.609375,1.75 1.609375,2.53125 0,0.609375 -0.046875,0.78125 -0.125,0.984375 -0.21875,0.71875 -0.515625,1.875 -0.515625,2.140625 0,0.109375 0.046875,0.171875 0.125,0.171875 0.140625,0 0.21875,-0.21875 0.328125,-0.59375 C 3.65625,0.703125 3.75,0.140625 3.78125,-0.171875 c 0.03125,-0.125 0.046875,-0.25 0.09375,-0.390625 0.3125,-0.984375 0.953125,-2.46875 1.34375,-3.25 0.078125,-0.125 0.1875,-0.34375 0.1875,-0.390625 0,-0.09375 -0.09375,-0.09375 -0.109375,-0.09375 -0.03125,0 -0.09375,0 -0.125,0.0625 C 4.65625,-3.28125 4.25,-2.28125 3.859375,-1.28125 3.84375,-1.578125 3.84375,-2.34375 3.453125,-3.3125 3.203125,-3.921875 2.8125,-4.40625 2.125,-4.40625 c -1.25,0 -1.953125,1.515625 -1.953125,1.828125 0,0.09375 0.09375,0.09375 0.203125,0.09375 z m 0,0"
   id="id-e46ae5f4-e982-468f-b540-9f69a377a7a9"
   style="fill:#ff6600;stroke-width:0" />&#10;      </g></g>&#10;</g></g></svg>
