<?xml version="1.0" encoding="UTF-8" standalone="no"?>
<!-- Created with Inkscape (http://www.inkscape.org/) -->

<svg
   version="1.1"
   id="svg1"
   width="987.53906"
   height="445.93359"
   viewBox="0 0 987.53906 445.93359"
   sodipodi:docname="phasetransition.svg"
   inkscape:version="1.3 (0e150ed6c4, 2023-07-21)"
   xmlns:inkscape="http://www.inkscape.org/namespaces/inkscape"
   xmlns:sodipodi="http://sodipodi.sourceforge.net/DTD/sodipodi-0.dtd"
   xmlns="http://www.w3.org/2000/svg"
   xmlns:svg="http://www.w3.org/2000/svg">
  <defs
     id="defs1">
    <clipPath
       clipPathUnits="userSpaceOnUse"
       id="clipPath115">
      <path
         d="M 78.75,460 H 750 v 2 H 78.75 Z"
         id="path115" />
    </clipPath>
    <clipPath
       clipPathUnits="userSpaceOnUse"
       id="clipPath117">
      <path
         d="M 78.75,388 H 750 v 2 H 78.75 Z"
         id="path117" />
    </clipPath>
  </defs>
  <sodipodi:namedview
     id="namedview1"
     pagecolor="#ffffff"
     bordercolor="#666666"
     borderopacity="1.0"
     inkscape:showpageshadow="2"
     inkscape:pageopacity="0.0"
     inkscape:pagecheckerboard="0"
     inkscape:deskcolor="#d1d1d1"
     inkscape:zoom="0.8960756"
     inkscape:cx="491.58799"
     inkscape:cy="274.53041"
     inkscape:window-width="1904"
     inkscape:window-height="987"
     inkscape:window-x="26"
     inkscape:window-y="23"
     inkscape:window-maximized="0"
     inkscape:current-layer="g1">
    <inkscape:page
       x="0"
       y="0"
       inkscape:label="1"
       id="page1"
       width="987.53906"
       height="445.93359"
       margin="0"
       bleed="0" />
  </sodipodi:namedview>
  <g
     id="g1"
     inkscape:groupmode="layer"
     inkscape:label="1"
     transform="translate(-17.960936,-5.6679702)">
    <path
       id="path1"
       d="m 29.507492,-17.636032 c 0,0 0,-0.292968 -0.316406,-0.292968 -0.609375,0 -1.289063,0.08203 -1.921875,0.08203 -0.832032,0 -1.757813,-0.08203 -2.589844,-0.08203 -0.164063,0 -0.503906,0 -0.503906,0.503906 0,0.28125 0.234375,0.316406 0.421875,0.316406 0.445312,0.02344 1.335937,0.175781 1.335937,0.996094 0,0.316406 -0.128906,0.550781 -0.292969,0.832031 L 19.007492,-3.0461862 18.421554,-15.96025 c 0,0 -0.02344,-0.08203 -0.02344,-0.1875 0,-0.445313 0.164062,-0.9375 1.863281,-0.960938 0.210938,0 0.527344,0 0.527344,-0.527344 0,-0.234375 -0.210938,-0.292968 -0.363281,-0.292968 -0.972657,0 -2.003907,0.08203 -2.964844,0.08203 -0.84375,0 -1.757813,-0.08203 -2.578125,-0.08203 -0.105469,0 -0.46875,0 -0.46875,0.503906 0,0.316406 0.28125,0.316406 0.550781,0.316406 1.101563,0 1.207031,0.152344 1.253906,0.550781 0.03516,0.105469 0.105469,1.757813 0.105469,1.757813 0,0.210938 0,0.257813 -0.152344,0.515625 L 10.054367,-3.0461862 9.4801482,-15.878219 c -0.035156,-0.550781 -0.058594,-1.207031 1.6992188,-1.230469 0.375,0 0.65625,0 0.65625,-0.503906 0,-0.316406 -0.28125,-0.316406 -0.363281,-0.316406 -0.972657,0 -1.9921878,0.08203 -2.9648441,0.08203 -0.84375,0 -1.7578125,-0.08203 -2.578125,-0.08203 -0.1054687,0 -0.46875,0 -0.46875,0.503906 0,0.316406 0.2578125,0.316406 0.6328125,0.316406 1.171875,0 1.171875,0.199219 1.2070313,0.832032 l 0.7265625,16.19531387 c 0.035156,0.55078131 0.082031,0.65625007 0.4804687,0.65625007 0.3867188,0 0.46875,-0.12890626 0.6796875,-0.52734381 L 16.405929,-13.14775 16.980148,-0.08134213 c 0.03516,0.5039063 0.03516,0.65625007 0.480469,0.65625007 0.210937,0 0.410156,0 0.679687,-0.46875005 L 26.355148,-14.964156 c 0.890625,-1.628907 1.523438,-2.050782 2.777344,-2.144532 0.269531,-0.03516 0.375,-0.269531 0.375,-0.527344 z m 0,0"
       style="fill:#000000;fill-opacity:1;fill-rule:nonzero;stroke:none"
       aria-label="W"
       transform="matrix(0,-1.3333333,1.3333332,0,44.210019,235.91754)" />
    <path
       id="path2"
       d="m 7.3699719,-1.6399188 c 0,-0.070313 -0.1289063,-0.2460939 -0.2578125,-0.2460939 -0.058594,0 -0.070312,0.011719 -0.1992188,0.1757813 -1.1601562,1.47656339 -2.5664062,1.53515717 -2.8359375,1.53515717 -0.84375,0 -1.2421875,-0.7031254 -1.2421875,-1.61718837 0,-0.8320318 0.421875,-2.4960952 0.8320313,-3.2460957 0.5742187,-1.0195318 1.359375,-1.5703134 2.0625,-1.5703134 0.1757812,0 0.8789062,0.023438 1.125,0.6679692 -0.796875,0.09375 -0.796875,0.7734379 -0.796875,0.7734379 0,0.2578127 0.1757812,0.5039066 0.5390625,0.5039066 0.421875,0 0.8085937,-0.339844 0.8085937,-0.9375006 0,-0.7734379 -0.6796875,-1.3593758 -1.6875,-1.3593758 -1.9570312,0 -3.984375,2.2382826 -3.984375,4.5351589 0,1.55859463 0.9257813,2.60156398 2.3085938,2.60156398 2.015625,0 3.328125,-1.58203218 3.328125,-1.81640728 z m 0,0"
       style="fill:#000000;fill-opacity:1;fill-rule:nonzero;stroke:none"
       aria-label="c"
       transform="matrix(0,-1.3333333,1.3333326,0,47.709995,199.41257)" />
    <path
       id="path3"
       d="m 11.682564,-19.159494 c 0,-0.292969 -0.234375,-0.527345 -0.527344,-0.527345 -0.234375,0 -0.421875,0.128907 -0.503906,0.339845 L 1.4989703,5.8600724 c -0.035156,0.046875 -0.035156,0.1289064 -0.035156,0.1757815 0,0.2929691 0.2460937,0.5273445 0.5273437,0.5273445 0.234375,0 0.421875,-0.1289065 0.5039063,-0.3398443 L 11.659127,-18.983713 c 0.02344,-0.04687 0.02344,-0.128906 0.02344,-0.175781 z m 0,0"
       style="fill:#000000;fill-opacity:1;fill-rule:nonzero;stroke:none"
       aria-label="/"
       transform="matrix(0,-1.3333333,1.3333315,0,44.210019,189.75253)" />
    <path
       id="path4"
       d="m 9.3388251,-3.7493177 c 0,-0.2695318 -0.1992188,-0.2695318 -0.3867188,-0.2695318 -0.3164062,0 -0.3164062,0.035156 -0.5273437,0.5039072 -0.46875,1.2539085 -1.5234375,3.22266214 -3.0234375,3.22266214 -0.703125,0 -0.703125,-0.6562512 -0.703125,-1.06640824 0,-0.1875003 0,-0.6093761 0.1875,-1.3476587 L 6.8192938,-10.49933 h 2.2382813 c 0.4453125,0 0.7382812,0 0.7382812,-0.503907 0,-0.304688 -0.2460937,-0.304688 -0.65625,-0.304688 h -2.109375 l 0.9726563,-3.890632 c 0.1054687,-0.363282 0.1054687,-0.421876 0.1054687,-0.550783 0,-0.550782 -0.4453125,-0.679688 -0.703125,-0.679688 -0.65625,0 -0.9257812,0.550782 -1.03125,0.937501 l -1.0195312,4.183602 H 3.1278876 c -0.4570313,0 -0.7382813,0 -0.7382813,0.492188 0,0.316407 0.234375,0.316407 0.65625,0.316407 h 2.0976563 l -1.8867188,7.53517 c -0.023437,0.1054689 -0.1289062,0.5273447 -0.1289062,0.8906266 0,1.31250238 0.8554687,2.36719181 2.2265625,2.36719181 2.6484375,0 3.984375,-3.91406961 3.984375,-4.04297611 z m 0,0"
       style="fill:#000000;fill-opacity:1;fill-rule:nonzero;stroke:none"
       aria-label="t"
       transform="matrix(0,-1.3333333,1.3333309,0,44.210019,172.25255)" />
    <path
       id="path7"
       d="m 564.1914,437.80468 c 0,0 -0.0312,-0.34375 -0.40625,-0.34375 -0.35937,0 -0.35937,0.0937 -0.53125,0.73438 -0.625,2.20312 -1.78125,4.85937 -3.4375,6.92187 v -2.17187 c 0,-5.48438 -3.25,-7.20313 -5.84375,-7.20313 -4.78125,0 -9.40625,5 -9.40625,9.9375 0,3.25 2.09375,5.92188 5.67188,5.92188 2.20312,0 4.71875,-0.8125 7.375,-2.95313 0.45312,1.85938 1.60937,2.95313 3.1875,2.95313 1.85937,0 2.9375,-1.9375 2.9375,-2.48438 0,-0.25 -0.20313,-0.35937 -0.42188,-0.35937 -0.23437,0 -0.34375,0.10938 -0.45312,0.35937 -0.625,1.70313 -1.95313,1.70313 -1.95313,1.70313 -1.09375,0 -1.09375,-2.71875 -1.09375,-3.5625 0,-0.73438 0,-0.8125 0.35938,-1.23438 3.28125,-4.125 4.01562,-8.21875 4.01562,-8.21875 z m -6.71875,9.9375 c -3.07812,2.70313 -5.76562,3.07813 -7.17187,3.07813 -2.09375,0 -3.14063,-1.5625 -3.14063,-3.8125 0,-1.71875 0.90625,-5.48438 2.03125,-7.28125 1.64063,-2.54688 3.53125,-3.21875 4.75,-3.21875 3.46875,0 3.46875,4.59375 3.46875,7.3125 0,1.29687 0,3.32812 0.0625,3.92187 z m 0,0"
       style="fill:#000000;fill-opacity:1;fill-rule:nonzero;stroke:none;stroke-width:1.33333"
       aria-label="ð›¼" />
    <path
       id="path8"
       d="m 11.495658,-11.273346 c 0,1.9570309 -1.148437,3.6210934 -3.3749996,4.8164059 0,0 -2.25,1.21875 -2.25,1.21875 -1.9570313,1.1484375 -2.671875,1.9804688 -2.8828125,3.28125 0,0 8.4023441,0 8.4023441,0 0,0 0,1.9570312875 0,1.9570312875 0,0 -10.62890662,0 -10.62890662,0 C 0.94878338,-3.5155338 1.9097209,-5.0155338 5.2378459,-6.9022526 c 0,0 2.0742187,-1.171875 2.0742187,-1.171875 1.4179688,-0.8085937 2.15625,-1.8984375 2.15625,-3.1523434 0,-1.710938 -1.3476562,-2.988282 -3.140625,-2.988282 -1.96875,0 -3.0703125,1.125 -3.2226562,3.796875 0,0 -1.9804688,0 -1.9804688,0 0.1171875,-3.867187 2.0039063,-5.53125 5.2617188,-5.53125 3.0234375,0 5.1093746,1.980469 5.1093746,4.675782 z M 16.810112,9.11875e-5 c 0,0 -2.34375,0 -2.34375,0 0,0 0,-2.3437499875 0,-2.3437499875 0,0 2.34375,0 2.34375,0 z M 30.307182,-5.2850651 c 0,3.375 -2.25,5.62500004 -5.472656,5.62500004 -2.835938,0 -4.628907,-1.265625 -5.285157,-4.42968754 0,0 1.980469,0 1.980469,0 0.46875,1.7929688 1.535156,2.671875 3.269531,2.671875 2.15625,0 3.480469,-1.3007812 3.480469,-3.5976562 0,-2.3671875 -1.347656,-3.7382813 -3.480469,-3.7382813 -1.242187,0 -2.003906,0.3867188 -2.929687,1.4882813 0,0 -1.828125,0 -1.828125,0 0,0 1.195312,-8.3437502 1.195312,-8.3437502 0,0 8.238282,0 8.238282,0 0,0 0,1.957031 0,1.957031 0,0 -6.632813,0 -6.632813,0 0,0 -0.632812,4.1132817 -0.632812,4.1132817 0.914062,-0.6796877 1.816406,-0.9726567 2.941406,-0.9726567 3.058594,0 5.15625,2.0742192 5.15625,5.2265629 z m 12.36914,-2.390625 c 0,5.25 -1.839843,8.01562504 -5.214843,8.01562504 -3.421875,0 -5.214844,-2.76562504 -5.214844,-8.14453124 0,-5.3554687 1.769531,-8.1445317 5.214844,-8.1445317 3.46875,0 5.214843,2.742188 5.214843,8.2734379 z m -2.015625,-0.1757812 c 0,-4.2773437 -1.066406,-6.3515627 -3.199218,-6.3515627 -2.132813,0 -3.199219,2.050781 -3.199219,6.4218752 0,4.359375 1.066406,6.4804687 3.152344,6.4804687 2.203125,0 3.246093,-2.0273437 3.246093,-6.5507812 z m 0,0"
       style="fill:#000000;fill-opacity:1;fill-rule:nonzero;stroke:none"
       aria-label="2.50"
       transform="matrix(1.3333333,0,0,1.3333333,350.18027,414.41003)" />
    <path
       id="path9"
       d="m 11.495407,-11.273323 c 0,1.957027 -1.148438,3.6210861 -3.3750002,4.8163961 0,0 -2.25,1.2187475 -2.25,1.2187475 -1.9570313,1.1484352 -2.671875,1.9804647 -2.8828125,3.2812433 0,0 8.4023437,0 8.4023437,0 0,0 0,1.957027287314 0,1.957027287314 0,0 -10.62890625,0 -10.62890625,0 C 0.94853175,-3.5155266 1.9094693,-5.0155236 5.2375943,-6.9022385 c 0,0 2.0742187,-1.1718726 2.0742187,-1.1718726 1.4179688,-0.8085921 2.15625,-1.8984336 2.15625,-3.1523369 0,-1.710934 -1.3476562,-2.988276 -3.140625,-2.988276 -1.96875,0 -3.0703125,1.124998 -3.2226562,3.796868 0,0 -1.9804688,0 -1.9804688,0 0.1171875,-3.86718 2.0039063,-5.531239 5.2617188,-5.531239 3.0234375,0 5.1093752,1.980465 5.1093752,4.675772 z m 0,0"
       style="fill:#000000;fill-opacity:1;fill-rule:nonzero;stroke:none"
       aria-label="2"
       transform="matrix(1.3333333,0,0,1.3333361,642.06342,414.41003)" />
    <path
       id="path10"
       d="m 4.2998659,9.11875e-5 c 0,0 -2.34375,0 -2.34375,0 0,0 0,-2.3437499875 0,-2.3437499875 0,0 2.34375,0 2.34375,0 z m 0,0"
       style="fill:#000000;fill-opacity:1;fill-rule:nonzero;stroke:none"
       aria-label="."
       transform="matrix(1.3333333,0,0,1.3333333,658.74341,414.41003)" />
    <path
       id="path11"
       d="M 11.694305,-13.94525 C 8.3427424,-9.9725855 6.0927424,-5.1561694 5.2138362,9.1187686e-5 c 0,0 -2.109375,0 -2.109375,0 C 4.2294612,-4.9921065 6.4794612,-9.6561786 9.6552424,-13.65228 c 0,0 -8.625,0 -8.625,0 0,0 0,-1.957036 0,-1.957036 0,0 10.6640626,0 10.6640626,0 z m 0,0"
       style="fill:#000000;fill-opacity:1;fill-rule:nonzero;stroke:none"
       aria-label="7"
       transform="matrix(1.3333333,0,0,1.3333306,667.08337,414.41003)" />
    <path
       id="path12"
       d="m 11.541687,-5.2850651 c 0,3.375 -2.2500002,5.62500004 -5.4726564,5.62500004 -2.8359375,0 -4.6289063,-1.265625 -5.28515629,-4.42968754 0,0 1.98046879,0 1.98046879,0 0.46875,1.7929688 1.5351562,2.671875 3.2695312,2.671875 2.15625,0 3.4804688,-1.3007812 3.4804688,-3.5976562 0,-2.3671875 -1.3476563,-3.7382813 -3.4804688,-3.7382813 -1.2421875,0 -2.0039062,0.3867188 -2.9296875,1.4882813 0,0 -1.828125,0 -1.828125,0 0,0 1.1953125,-8.3437502 1.1953125,-8.3437502 0,0 8.2382817,0 8.2382817,0 0,0 0,1.957031 0,1.957031 0,0 -6.6328129,0 -6.6328129,0 0,0 -0.6328125,4.1132817 -0.6328125,4.1132817 0.9140625,-0.6796877 1.8164062,-0.9726567 2.9414062,-0.9726567 3.0585938,0 5.1562502,2.0742192 5.1562502,5.2265629 z m 0,0"
       style="fill:#000000;fill-opacity:1;fill-rule:nonzero;stroke:none"
       aria-label="5"
       transform="matrix(1.3333333,0,0,1.3333333,683.76343,414.41003)" />
    <path
       id="path13"
       d="m 11.389709,-4.6405243 c 0,3.0234313 -2.1210934,4.98045854 -5.4023434,4.98045854 -3.2695312,0 -5.01562497,-1.60546544 -5.27343747,-5.15623944 0,0 1.98046877,0 1.98046877,0 0.140625,2.3203077 1.1953125,3.3984305 3.3515625,3.3984305 2.0742187,0 3.3164062,-1.19531 3.3164062,-3.1992122 0,-1.7695276 -1.125,-2.8124942 -3.3164062,-2.8124942 0,0 -1.078125,0 -1.078125,0 0,0 0,-1.6640591 0,-1.6640591 3.1757812,0 3.9140625,-0.6914049 3.9140625,-2.4023388 0,-1.687497 -1.0546875,-2.718745 -2.8125,-2.718745 -2.015625,0 -2.9882813,1.054686 -3.0351563,3.41015 0,0 -1.9804687,0 -1.9804687,0 0.070312,-3.398431 1.78125,-5.144521 4.9921875,-5.144521 3.046875,0 4.8632816,1.640622 4.8632816,4.382804 0,1.5937463 -0.738282,2.6367129 -2.2265629,3.2226492 1.9101559,0.64453 2.7070309,1.7695277 2.7070309,3.7031175 z m 0,0"
       style="fill:#000000;fill-opacity:1;fill-rule:nonzero;stroke:none"
       aria-label="3"
       transform="matrix(1.3333333,0,0,1.3333361,933.94653,414.41003)" />
    <path
       id="path14"
       d="m 4.2996373,9.11875e-5 c 0,0 -2.34375,0 -2.34375,0 0,0 0,-2.3437499875 0,-2.3437499875 0,0 2.34375,0 2.34375,0 z m 0,0"
       style="fill:#000000;fill-opacity:1;fill-rule:nonzero;stroke:none"
       aria-label="."
       transform="matrix(1.3333333,0,0,1.3333333,950.62653,414.41003)" />
    <path
       id="path15"
       d="m 11.401108,-7.6757058 c 0,5.2500108 -1.8398442,8.01564143 -5.2148442,8.01564143 -3.421875,0 -5.21484374,-2.76563063 -5.21484374,-8.14454793 0,-5.3554797 1.76953124,-8.1445477 5.21484374,-8.1445477 3.46875,0 5.2148442,2.742193 5.2148442,8.2734542 z M 9.3854826,-7.8514874 c 0,-4.2773526 -1.0664063,-6.3515756 -3.1992188,-6.3515756 -2.1328125,0 -3.1992187,2.050786 -3.1992187,6.4218883 0,4.3593839 1.0664062,6.480482 3.1523437,6.480482 2.203125,0 3.2460938,-2.0273479 3.2460938,-6.5507947 z m 0,0"
       style="fill:#000000;fill-opacity:1;fill-rule:nonzero;stroke:none"
       aria-label="0"
       transform="matrix(1.3333333,0,0,1.3333306,958.96649,414.41003)" />
    <path
       id="path16"
       d="m 11.403763,-7.6756901 c 0,5.25 -1.8398439,8.01562504 -5.2148439,8.01562504 -3.421875,0 -5.21484373,-2.76562504 -5.21484373,-8.14453124 0,-5.3554687 1.76953123,-8.1445317 5.21484373,-8.1445317 3.46875,0 5.2148439,2.742188 5.2148439,8.2734379 z M 9.3881379,-7.8514713 c 0,-4.2773437 -1.0664063,-6.3515627 -3.1992188,-6.3515627 -2.1328125,0 -3.1992187,2.050781 -3.1992187,6.4218752 0,4.359375 1.0664062,6.4804687 3.1523437,6.4804687 2.203125,0 3.2460938,-2.0273437 3.2460938,-6.5507812 z M -659.34233,-24.533112 c 0,5.25 -1.83984,8.015625 -5.21484,8.015625 -3.42188,0 -5.21485,-2.765625 -5.21485,-8.144531 0,-5.355469 1.76953,-8.144531 5.21485,-8.144531 3.46875,0 5.21484,2.742187 5.21484,8.273437 z m -2.01563,-0.175781 c 0,-4.277344 -1.0664,-6.351563 -3.19921,-6.351563 -2.13282,0 -3.19922,2.050782 -3.19922,6.421875 0,4.359375 1.0664,6.480469 3.15234,6.480469 2.20313,0 3.24609,-2.027344 3.24609,-6.550781 z m -1.58203,-37.772461 c 0,0 -1.98047,0 -1.98047,0 0,0 0,-11.367188 0,-11.367188 0,0 -3.52734,0 -3.52734,0 0,0 0,-1.417968 0,-1.417968 3.05859,-0.375 3.50391,-0.714844 4.20703,-3.164063 0,0 1.30078,0 1.30078,0 z m 3.69141,-56.897466 c 0,1.95704 -1.14844,3.6211 -3.375,4.81641 0,0 -2.25,1.21875 -2.25,1.21875 -1.95703,1.14844 -2.67188,1.98047 -2.88281,3.28125 0,0 8.40234,0 8.40234,0 0,0 0,1.95703 0,1.95703 0,0 -10.62891,0 -10.62891,0 0.1875,-3.51562 1.14844,-5.01562 4.47657,-6.90234 0,0 2.07422,-1.17188 2.07422,-1.17188 1.41796,-0.80859 2.15625,-1.89843 2.15625,-3.15234 0,-1.71094 -1.34766,-2.98828 -3.14063,-2.98828 -1.96875,0 -3.07031,1.125 -3.22266,3.79687 0,0 -1.98046,0 -1.98046,0 0.11718,-3.86718 2.0039,-5.53125 5.26171,-5.53125 3.02344,0 5.10938,1.98047 5.10938,4.67578 z m -0.10547,-38.99414 c 0,3.02344 -2.12109,4.98047 -5.40234,4.98047 -3.26953,0 -5.01563,-1.60547 -5.27344,-5.15625 0,0 1.98047,0 1.98047,0 0.14062,2.32032 1.19531,3.39844 3.35156,3.39844 2.07422,0 3.31641,-1.19531 3.31641,-3.19922 0,-1.76953 -1.125,-2.8125 -3.31641,-2.8125 0,0 -1.07812,0 -1.07812,0 0,0 0,-1.66406 0,-1.66406 3.17578,0 3.91406,-0.69141 3.91406,-2.40234 0,-1.6875 -1.05469,-2.71875 -2.8125,-2.71875 -2.01563,0 -2.98828,1.05468 -3.03516,3.41015 0,0 -1.98047,0 -1.98047,0 0.0703,-3.39844 1.78125,-5.14453 4.99219,-5.14453 3.04688,0 4.86328,1.64063 4.86328,4.38281 0,1.59375 -0.73828,2.63672 -2.22656,3.22266 1.91016,0.64453 2.70703,1.76953 2.70703,3.70312 z m 0.30469,-44.80371 c 0,0 -2.35547,0 -2.35547,0 0,0 0,3.82032 0,3.82032 0,0 -1.98047,0 -1.98047,0 0,0 0,-3.82032 0,-3.82032 0,0 -6.72656,0 -6.72656,0 0,0 0,-2.09765 0,-2.09765 0,0 7.24219,-10.03125 7.24219,-10.03125 0,0 1.46484,0 1.46484,0 0,0 0,10.34765 0,10.34765 0,0 2.35547,0 2.35547,0 z m -4.33594,-1.78125 c 0,0 0,-6.97265 0,-6.97265 0,0 -4.99219,6.97265 -4.99219,6.97265 z m 0,0"
       style="fill:#000000;fill-opacity:1;fill-rule:nonzero;stroke:none"
       aria-label="0&#10;0&#10;1&#10;2&#10;3&#10;4"
       transform="matrix(1.3333333,0,0,1.3333333,975.64655,414.41003)" />
    <path
       id="path17"
       d="m 11.543192,-5.2843622 c 0,3.3750009 -2.2499999,5.62500148 -5.4726561,5.62500148 -2.8359375,0 -4.6289063,-1.26562534 -5.28515627,-4.42968868 0,0 1.98046877,0 1.98046877,0 0.46875,1.7929692 1.5351562,2.6718757 3.2695312,2.6718757 2.15625,0 3.4804688,-1.3007816 3.4804688,-3.5976572 0,-2.3671881 -1.3476563,-3.7382822 -3.4804688,-3.7382822 -1.2421875,0 -2.0039062,0.3867188 -2.9296875,1.4882816 0,0 -1.828125,0 -1.828125,0 0,0 1.1953125,-8.3437525 1.1953125,-8.3437525 0,0 8.2382814,0 8.2382814,0 0,0 0,1.957032 0,1.957032 0,0 -6.6328126,0 -6.6328126,0 0,0 -0.6328125,4.1132824 -0.6328125,4.1132824 0.9140625,-0.6796874 1.8164062,-0.9726564 2.9414062,-0.9726564 3.0585938,0 5.1562499,2.0742192 5.1562499,5.2265638 z m 0,0"
       style="fill:#000000;fill-opacity:1;fill-rule:nonzero;stroke:none"
       aria-label="5"
       transform="matrix(1.3333333,0,0,1.333333,81.320015,87.768471)" />
    <path
       id="path18"
       d="m 11.543192,-4.9464652 c 0,3.1171875 -2.1796874,5.28515626 -5.2148436,5.28515626 -3.65625,0 -5.35546877,-2.63671876 -5.35546877,-7.60546876 0,-5.5546873 1.99218747,-8.6835933 5.70703127,-8.6835933 2.4375,0 4.1484371,1.546875 4.5234371,4.160156 0,0 -1.9804684,0 -1.9804684,0 -0.3164062,-1.535156 -1.2773437,-2.414063 -2.671875,-2.414063 -2.2734375,0 -3.5390625,2.167969 -3.5625,6.0585941 0.8554688,-1.171875 2.0976563,-1.78125 3.6679688,-1.78125 2.859375,0 4.8867186,2.0039062 4.8867186,4.9804687 z m -2.0273436,0.1523438 c 0,-2.1328125 -1.1953125,-3.375 -3.1054688,-3.375 -1.9570312,0 -3.3046875,1.2773437 -3.3046875,3.2578125 0,2.0507812 1.3945313,3.4921875 3.234375,3.4921875 1.828125,0 3.1757813,-1.3710938 3.1757813,-3.375 z m 0,0"
       style="fill:#000000;fill-opacity:1;fill-rule:nonzero;stroke:none"
       aria-label="6"
       transform="matrix(1.3333333,0,0,1.3333333,81.320015,26.935131)" />
    <path
       id="path19"
       d="M 109.398,66.609 V 41.898"
       style="fill:none;stroke:#000000;stroke-width:1.125;stroke-linecap:butt;stroke-linejoin:miter;stroke-miterlimit:2;stroke-dasharray:none;stroke-opacity:1"
       transform="scale(1.3333333)" />
    <path
       id="path20"
       d="M 196.961,105.875 V 98.949"
       style="fill:none;stroke:#000000;stroke-width:1.125;stroke-linecap:butt;stroke-linejoin:miter;stroke-miterlimit:2;stroke-dasharray:none;stroke-opacity:1"
       transform="scale(1.3333333)" />
    <path
       id="path21"
       d="m 284.527,139.512 v -2.739"
       style="fill:none;stroke:#000000;stroke-width:1.125;stroke-linecap:butt;stroke-linejoin:miter;stroke-miterlimit:2;stroke-dasharray:none;stroke-opacity:1"
       transform="scale(1.3333333)" />
    <path
       id="path22"
       d="m 459.656,190.047 v -2.738"
       style="fill:none;stroke:#000000;stroke-width:1.125;stroke-linecap:butt;stroke-linejoin:miter;stroke-miterlimit:2;stroke-dasharray:none;stroke-opacity:1"
       transform="scale(1.3333333)" />
    <path
       id="path23"
       d="m 722.352,247.246 v -2.734"
       style="fill:none;stroke:#000000;stroke-width:1.125;stroke-linecap:butt;stroke-linejoin:miter;stroke-miterlimit:2;stroke-dasharray:none;stroke-opacity:1"
       transform="scale(1.3333333)" />
    <path
       id="path24"
       d="m 105.648,66.609 h 7.5"
       style="fill:none;stroke:#000000;stroke-width:1.125;stroke-linecap:butt;stroke-linejoin:miter;stroke-miterlimit:2;stroke-dasharray:none;stroke-opacity:1"
       transform="scale(1.3333333)" />
    <path
       id="path25"
       d="m 105.648,41.898 h 7.5"
       style="fill:none;stroke:#000000;stroke-width:1.125;stroke-linecap:butt;stroke-linejoin:miter;stroke-miterlimit:2;stroke-dasharray:none;stroke-opacity:1"
       transform="scale(1.3333333)" />
    <path
       id="path26"
       d="m 193.211,105.875 h 7.5"
       style="fill:none;stroke:#000000;stroke-width:1.125;stroke-linecap:butt;stroke-linejoin:miter;stroke-miterlimit:2;stroke-dasharray:none;stroke-opacity:1"
       transform="scale(1.3333333)" />
    <path
       id="path27"
       d="m 193.211,98.949 h 7.5"
       style="fill:none;stroke:#000000;stroke-width:1.125;stroke-linecap:butt;stroke-linejoin:miter;stroke-miterlimit:2;stroke-dasharray:none;stroke-opacity:1"
       transform="scale(1.3333333)" />
    <path
       id="path28"
       d="m 280.777,139.512 h 7.5"
       style="fill:none;stroke:#000000;stroke-width:1.125;stroke-linecap:butt;stroke-linejoin:miter;stroke-miterlimit:2;stroke-dasharray:none;stroke-opacity:1"
       transform="scale(1.3333333)" />
    <path
       id="path29"
       d="m 280.777,136.773 h 7.5"
       style="fill:none;stroke:#000000;stroke-width:1.125;stroke-linecap:butt;stroke-linejoin:miter;stroke-miterlimit:2;stroke-dasharray:none;stroke-opacity:1"
       transform="scale(1.3333333)" />
    <path
       id="path30"
       d="m 455.906,190.047 h 7.5"
       style="fill:none;stroke:#000000;stroke-width:1.125;stroke-linecap:butt;stroke-linejoin:miter;stroke-miterlimit:2;stroke-dasharray:none;stroke-opacity:1"
       transform="scale(1.3333333)" />
    <path
       id="path31"
       d="m 455.906,187.309 h 7.5"
       style="fill:none;stroke:#000000;stroke-width:1.125;stroke-linecap:butt;stroke-linejoin:miter;stroke-miterlimit:2;stroke-dasharray:none;stroke-opacity:1"
       transform="scale(1.3333333)" />
    <path
       id="path32"
       d="m 718.602,247.246 h 7.5"
       style="fill:none;stroke:#000000;stroke-width:1.125;stroke-linecap:butt;stroke-linejoin:miter;stroke-miterlimit:2;stroke-dasharray:none;stroke-opacity:1"
       transform="scale(1.3333333)" />
    <path
       id="path33"
       d="m 718.602,244.512 h 7.5"
       style="fill:none;stroke:#000000;stroke-width:1.125;stroke-linecap:butt;stroke-linejoin:miter;stroke-miterlimit:2;stroke-dasharray:none;stroke-opacity:1"
       transform="scale(1.3333333)" />
    <path
       id="path34"
       d="m 109.398,54.254 87.563,48.156 87.566,35.735 175.129,50.531 262.696,57.203"
       style="fill:none;stroke:#1b9e77;stroke-width:2.25;stroke-linecap:butt;stroke-linejoin:miter;stroke-miterlimit:2;stroke-dasharray:6.75, 6.75;stroke-dashoffset:0;stroke-opacity:0.9"
       transform="scale(1.3333333)" />
    <path
       id="path35"
       d="m 116.008,54.254 c 0,-3.649 -2.961,-6.609 -6.61,-6.609 -3.652,0 -6.609,2.96 -6.609,6.609 0,3.652 2.957,6.609 6.609,6.609 3.649,0 6.61,-2.957 6.61,-6.609 z"
       style="fill:#1b9e77;fill-opacity:0.9;fill-rule:nonzero;stroke:none"
       transform="scale(1.3333333)" />
    <path
       id="path36"
       d="m 203.57,102.41 c 0,-3.648 -2.957,-6.609 -6.609,-6.609 -3.649,0 -6.609,2.961 -6.609,6.609 0,3.652 2.96,6.61 6.609,6.61 3.652,0 6.609,-2.958 6.609,-6.61 z"
       style="fill:#1b9e77;fill-opacity:0.9;fill-rule:nonzero;stroke:none"
       transform="scale(1.3333333)" />
    <path
       id="path37"
       d="m 291.137,138.145 c 0,-3.653 -2.957,-6.61 -6.61,-6.61 -3.648,0 -6.609,2.957 -6.609,6.61 0,3.648 2.961,6.609 6.609,6.609 3.653,0 6.61,-2.961 6.61,-6.609 z"
       style="fill:#1b9e77;fill-opacity:0.9;fill-rule:nonzero;stroke:none"
       transform="scale(1.3333333)" />
    <path
       id="path38"
       d="m 466.266,188.676 c 0,-3.649 -2.957,-6.61 -6.61,-6.61 -3.648,0 -6.609,2.961 -6.609,6.61 0,3.652 2.961,6.609 6.609,6.609 3.653,0 6.61,-2.957 6.61,-6.609 z"
       style="fill:#1b9e77;fill-opacity:0.9;fill-rule:nonzero;stroke:none"
       transform="scale(1.3333333)" />
    <path
       id="path39"
       d="m 728.961,245.879 c 0,-3.649 -2.957,-6.609 -6.609,-6.609 -3.649,0 -6.61,2.96 -6.61,6.609 0,3.648 2.961,6.609 6.61,6.609 3.652,0 6.609,-2.961 6.609,-6.609 z"
       style="fill:#1b9e77;fill-opacity:0.9;fill-rule:nonzero;stroke:none"
       transform="scale(1.3333333)" />
    <path
       id="path41"
       d="m 16.299952,-5.2491745 c 0,3.4101555 -2.625,5.71874871 -7.4765626,5.71874871 -4.5234375,0 -7.5585937,-2.17968701 -7.5585937,-6.69140471 0,0 2.3085937,0 2.3085937,0 0,2.7304681 1.78125,4.5468739 5.4023438,4.5468739 3.3046878,0 4.8867188,-1.2421872 4.8867188,-3.3398429 0,-1.4999997 -1.101563,-2.460937 -3.515625,-3.0937493 0,0 -4.7578126,-1.2656247 -4.7578126,-1.2656247 -2.5195312,-0.6562495 -3.75,-2.1210935 -3.75,-4.4531245 0,-3.468749 2.6015625,-5.777342 6.796875,-5.777342 4.4062496,0 7.0078126,2.179687 7.0078126,5.929686 0,0 -2.308594,0 -2.308594,0 0,-2.496093 -1.734375,-3.890624 -4.7812498,-3.890624 -2.5664063,0 -4.2773438,1.453125 -4.2773438,3.386718 0,1.476562 0.84375,2.238281 3.1523438,2.835937 0,0 4.8046878,1.289062 4.8046878,1.289062 2.601562,0.7148437 4.066406,2.4374996 4.066406,4.8046865 z m 0,0"
       style="fill:#000000;fill-opacity:1;fill-rule:nonzero;stroke:none"
       aria-label="S"
       transform="matrix(1.3333333,0,0,1.3333336,217.13001,300.36999)" />
    <path
       id="path42"
       d="m 12.657429,8.243125e-4 c 0,0 -1.96875,0 -1.96875,0 0,0 0,-2.1210937125 0,-2.1210937125 -1.2890626,1.80468746 -2.5781251,2.51953121 -4.5937501,2.51953121 -2.6835938,0 -4.3828125,-1.47656251 -4.3828125,-3.76171871 0,0 0,-10.3945311 0,-10.3945311 0,0 2.1796875,0 2.1796875,0 0,0 0,9.5273436 0,9.5273436 0,1.6523437 1.1015625,2.7070312 2.8242187,2.7070312 2.2851563,0 3.7617184,-1.8398437 3.7617184,-4.640625 0,0 0,-7.5937498 0,-7.5937498 0,0 2.179688,0 2.179688,0 z M 28.328327,-6.7491757 c 0,4.3828125 -2.34375,7.14843751 -5.882812,7.14843751 -1.792969,0 -3.070313,-0.6328125 -4.230469,-2.05078121 0,0 0,7.3710937 0,7.3710937 0,0 -2.179687,0 -2.179687,0 0,0 0,-19.4765623 0,-19.4765623 0,0 1.992187,0 1.992187,0 0,0 0,2.074219 0,2.074219 1.03125,-1.628907 2.519531,-2.460938 4.394531,-2.460938 3.644532,0 5.90625,2.777344 5.90625,7.3945313 z m -2.285156,-0.046875 c 0,-3.2812503 -1.582031,-5.3085933 -3.996094,-5.3085933 -2.308593,0 -3.832031,2.1093746 -3.832031,5.3320308 0,3.234375 1.523438,5.1210938 3.832031,5.1210938 2.390625,0 3.996094,-2.0273438 3.996094,-5.1445313 z m 16.611328,0.5507813 c 0,0 -10.136719,0 -10.136719,0 0.05859,3.1523437 1.769532,4.6171875 4.042969,4.6171875 1.769531,0 3,-0.7382813 3.597656,-2.5429688 0,0 2.203125,0 2.203125,0 -0.550781,2.7773438 -2.71875,4.57031251 -5.871093,4.57031251 -3.867188,0 -6.246094,-2.68359371 -6.246094,-7.19531251 0,-4.5117183 2.460937,-7.3476563 6.292969,-7.3476563 2.578125,0 4.675781,1.359375 5.566406,3.621094 0.398437,1.0195311 0.550781,2.2851561 0.550781,4.2773436 z m -2.332031,-1.9453125 c 0,-2.1562501 -1.652344,-3.9375001 -3.808594,-3.9375001 -2.203125,0 -3.75,1.652344 -3.9375,4.1015626 0,0 7.722656,0 7.722656,0 0.02344,-0.058594 0.02344,-0.1640625 0.02344,-0.1640625 z M 52.21114,-11.835113 c -3.386719,0.04687 -4.40625,1.59375 -4.40625,4.6992186 0,0 0,7.1367187125 0,7.1367187125 0,0 -2.179688,0 -2.179688,0 0,0 0,-13.7578123125 0,-13.7578123125 0,0 1.992188,0 1.992188,0 0,0 0,2.496094 0,2.496094 1.265625,-2.050782 2.332031,-2.882813 3.75,-2.882813 0.292969,0 0.480469,0.02344 0.84375,0.07031 z m 0,0"
       style="fill:#000000;fill-opacity:1;fill-rule:nonzero;stroke:none"
       aria-label="uper"
       transform="matrix(1.3333333,0,0,1.3333333,240.47499,300.36999)" />
    <path
       id="path43"
       d="m 6.7747196,-11.964014 c 0,0 -2.2851563,0 -2.2851563,0 0,0 0,11.96483831215 0,11.96483831215 0,0 -2.1796875,0 -2.1796875,0 0,0 0,-11.96483831215 0,-11.96483831215 0,0 -1.83984374,0 -1.83984374,0 0,0 0,-1.792968 0,-1.792968 0,0 1.83984374,0 1.83984374,0 0,0 0,-2.332031 0,-2.332031 0,-1.968749 1.2070313,-3.128905 3.234375,-3.128905 0.4453125,0 0.7265625,0.03516 1.2304688,0.140625 0,0 0,1.804687 0,1.804687 -0.5039063,-0.02344 -0.5742188,-0.02344 -0.7617188,-0.02344 -0.9960937,0 -1.5234375,0.468749 -1.5234375,1.39453 0,0 0,2.144531 0,2.144531 0,0 2.2851563,0 2.2851563,0 z m 0,0"
       style="fill:#000000;fill-opacity:1;fill-rule:nonzero;stroke:none"
       aria-label="f"
       transform="matrix(1.3333333,0,0,1.3333339,310.51001,300.36999)" />
    <path
       id="path44"
       d="m 3.9596554,8.243125e-4 c 0,0 -2.1796875,0 -2.1796875,0 0,0 0,-19.1367183125 0,-19.1367183125 0,0 2.1796875,0 2.1796875,0 z m 0,0"
       style="fill:#000000;fill-opacity:1;fill-rule:nonzero;stroke:none"
       aria-label="l"
       transform="matrix(1.3333333,0,0,1.3333333,320.23999,300.36999)" />
    <path
       id="path45"
       d="m 12.657543,8.2431285e-4 c 0,0 -1.96875,0 -1.96875,0 0,0 0,-2.12109461285 0,-2.12109461285 -1.2890624,1.80468823 -2.5781249,2.51953228 -4.5937499,2.51953228 -2.6835938,0 -4.3828125,-1.47656308 -4.3828125,-3.76172028 0,0 0,-10.3945357 0,-10.3945357 0,0 2.1796875,0 2.1796875,0 0,0 0,9.5273478 0,9.5273478 0,1.6523444 1.1015625,2.7070324 2.8242187,2.7070324 2.2851563,0 3.7617192,-1.8398445 3.7617192,-4.640627 0,0 0,-7.5937532 0,-7.5937532 0,0 2.179687,0 2.179687,0 z m 5.956055,0 c 0,0 -2.179688,0 -2.179688,0 0,0 0,-13.75781831285 0,-13.75781831285 0,0 2.179688,0 2.179688,0 z M 18.894848,-15.831214 c 0,0 -2.730469,0 -2.730469,0 0,0 0,-2.730469 0,-2.730469 0,0 2.730469,0 2.730469,0 z m 0,0"
       style="fill:#000000;fill-opacity:1;fill-rule:nonzero;stroke:none"
       aria-label="ui"
       transform="matrix(1.3333333,0,0,1.3333328,328.00999,300.36999)" />
    <path
       id="path46"
       d="m 12.994812,8.2431178e-4 c 0,0 -1.945313,0 -1.945313,0 0,0 0,-2.01562321178 0,-2.01562321178 -1.1835936,1.69921724 -2.4960936,2.41406036 -4.3828123,2.41406036 -3.703125,0 -5.98828126,-2.76562256 -5.98828126,-7.40624346 0,-4.382809 2.34374996,-7.136713 5.90624996,-7.136713 1.8398438,0 3.3046875,0.726562 4.2304686,2.121092 0,0 0,-7.113275 0,-7.113275 0,0 2.179688,0 2.179688,0 z M 10.815124,-6.8194822 c 0,-3.1757785 -1.4999998,-5.2851518 -3.8554686,-5.2851518 -2.390625,0 -3.9960937,2.027342 -3.9960937,5.2265581 0,3.1992159 1.6054687,5.2265579 4.0195312,5.2265579 2.3085938,0 3.8320311,-1.9921857 3.8320311,-5.1679642 z M 130.57489,-82.124104 c 0,0 -2.75391,0 -2.75391,0 0,0 -9.90234,-15.515611 -9.90234,-15.515611 0,0 0,15.515611 0,15.515611 0,0 -2.30859,0 -2.30859,0 0,0 0,-19.136706 0,-19.136706 0,0 2.64843,0 2.64843,0 0,0 10.00782,15.644522 10.00782,15.644522 0,0 0,-15.644522 0,-15.644522 0,0 2.30859,0 2.30859,0 z m 0,0"
       style="fill:#000000;fill-opacity:1;fill-rule:nonzero;stroke:none"
       aria-label="d&#10;N"
       transform="matrix(1.3333333,0,0,1.3333345,355.23999,300.36999)" />
    <path
       id="path47"
       d="m 13.382836,-6.7726191 c 0,4.5117227 -2.355469,7.17188126 -6.210938,7.17188126 -3.9140625,0 -6.22265625,-2.66015856 -6.22265625,-7.27735016 0,-4.617192 2.33203125,-7.265631 6.18750005,-7.265631 3.9726562,0 6.2460942,2.625002 6.2460942,7.3710999 z m -2.273438,-0.023437 c 0,-3.4101599 -1.4765625,-5.3320369 -3.9375,-5.3320369 -2.4492187,0 -3.9375,1.945315 -3.9375,5.2500055 0,3.3398467 1.4882813,5.2500046 3.9375,5.2500046 2.4140625,0 3.9375,-1.9453142 3.9375,-5.1679732 z m 0,0"
       style="fill:#000000;fill-opacity:1;fill-rule:nonzero;stroke:none"
       aria-label="o"
       transform="matrix(1.3333333,0,0,1.3333322,531.99997,190.86999)" />
    <path
       id="path48"
       d="m 12.785911,8.243125e-4 c 0,0 -2.179687,0 -2.179687,0 0,0 0,-9.5273437125 0,-9.5273437125 0,-1.6523436 -1.1015626,-2.7070316 -2.8359376,-2.7070316 -2.2265625,0 -3.75,1.839844 -3.75,4.6523441 0,0 0,7.5820312125 0,7.5820312125 0,0 -2.1796875,0 -2.1796875,0 0,0 0,-13.7578123125 0,-13.7578123125 0,0 2.015625,0 2.015625,0 0,0 0,2.308594 0,2.308594 1.2070312,-1.910157 2.5195312,-2.695313 4.5703125,-2.695313 2.6484376,0 4.3593746,1.464844 4.3593746,3.75 z M 22.049583,-6.3038632 c 0,0 -6.246093,0 -6.246093,0 0,0 0,-1.8867187 0,-1.8867187 0,0 6.246093,0 6.246093,0 z m 13.333008,2.4492188 c 0,2.6484375 -2.203125,4.25390621 -5.671875,4.25390621 -3.597656,0 -5.378906,-1.41796871 -5.484375,-4.59375001 0,0 2.308594,0 2.308594,0 0.292969,2.0976563 1.394531,2.5664063 3.363281,2.5664063 1.921875,0 3.199219,-0.7617188 3.199219,-2.0507813 0,-0.9960937 -0.597656,-1.4414062 -2.121094,-1.8046875 0,0 -2.050781,-0.5039062 -2.050781,-0.5039062 -3.257813,-0.7851563 -4.359375,-1.8046875 -4.359375,-3.9609375 0,-2.5429686 2.074219,-4.1953126 5.285156,-4.1953126 3.175781,0 4.957031,1.523438 4.980469,4.2187501 0,0 -2.308594,0 -2.308594,0 -0.04687,-1.4414061 -0.996094,-2.2031251 -2.753906,-2.2031251 -1.792969,0 -2.917969,0.820313 -2.917969,2.074219 0,0.9726561 0.761719,1.5468748 2.542969,1.9687498 0,0 2.109375,0.5039063 2.109375,0.5039063 2.730469,0.65625 3.878906,1.6757812 3.878906,3.7265625 z m 0,0"
       style="fill:#000000;fill-opacity:1;fill-rule:nonzero;stroke:none"
       aria-label="n-s"
       transform="matrix(1.3333333,0,0,1.3333333,551.45993,190.86999)" />
    <path
       id="path49"
       d="m 12.655678,8.2431033e-4 c 0,0 -1.96875,0 -1.96875,0 0,0 0,-2.12108821033 0,-2.12108821033 -1.2890624,1.80468279 -2.5781249,2.51952466 -4.5937499,2.51952466 -2.6835938,0 -4.3828125,-1.47655866 -4.3828125,-3.76170886 0,0 0,-10.3945039 0,-10.3945039 0,0 2.1796875,0 2.1796875,0 0,0 0,9.5273187 0,9.5273187 0,1.6523394 1.1015625,2.7070241 2.8242187,2.7070241 2.2851563,0 3.7617192,-1.8398389 3.7617192,-4.6406128 0,0 0,-7.59373 0,-7.59373 0,0 2.179687,0 2.179687,0 z m 0,0"
       style="fill:#000000;fill-opacity:1;fill-rule:nonzero;stroke:none"
       aria-label="u"
       transform="matrix(1.3333333,0,0,1.3333368,600.07498,190.86999)" />
    <path
       id="path50"
       d="m 13.734512,-6.7491757 c 0,4.3828125 -2.34375,7.14843751 -5.8828123,7.14843751 -1.7929688,0 -3.0703125,-0.6328125 -4.2304688,-2.05078121 0,0 0,7.3710937 0,7.3710937 0,0 -2.1796875,0 -2.1796875,0 0,0 0,-19.4765623 0,-19.4765623 0,0 1.9921875,0 1.9921875,0 0,0 0,2.074219 0,2.074219 1.03125,-1.628907 2.5195313,-2.460938 4.3945313,-2.460938 3.6445308,0 5.9062498,2.777344 5.9062498,7.3945313 z m -2.285156,-0.046875 c 0,-3.2812503 -1.5820313,-5.3085933 -3.9960938,-5.3085933 -2.3085938,0 -3.8320313,2.1093746 -3.8320313,5.3320308 0,3.234375 1.5234375,5.1210938 3.8320313,5.1210938 2.390625,0 3.9960938,-2.0273438 3.9960938,-5.1445313 z m 16.611328,0.5507813 c 0,0 -10.136719,0 -10.136719,0 0.05859,3.1523437 1.769532,4.6171875 4.042969,4.6171875 1.769531,0 3,-0.7382813 3.597656,-2.5429688 0,0 2.203125,0 2.203125,0 -0.550781,2.7773438 -2.71875,4.57031251 -5.871093,4.57031251 -3.867188,0 -6.246094,-2.68359371 -6.246094,-7.19531251 0,-4.5117183 2.460937,-7.3476563 6.292969,-7.3476563 2.578125,0 4.675781,1.359375 5.566406,3.621094 0.398437,1.0195311 0.550781,2.2851561 0.550781,4.2773436 z m -2.332031,-1.9453125 c 0,-2.1562501 -1.652344,-3.9375001 -3.808594,-3.9375001 -2.203125,0 -3.75,1.652344 -3.9375,4.1015626 0,0 7.722656,0 7.722656,0 0.02344,-0.058594 0.02344,-0.1640625 0.02344,-0.1640625 z m 11.885742,-3.6445311 c -3.386719,0.04687 -4.40625,1.59375 -4.40625,4.6992186 0,0 0,7.1367187125 0,7.1367187125 0,0 -2.179687,0 -2.179687,0 0,0 0,-13.7578123125 0,-13.7578123125 0,0 1.992187,0 1.992187,0 0,0 0,2.496094 0,2.496094 1.265625,-2.050782 2.332031,-2.882813 3.75,-2.882813 0.292969,0 0.480469,0.02344 0.84375,0.07031 z m 7.089844,-0.128906 c 0,0 -2.285156,0 -2.285156,0 0,0 0,11.9648433125 0,11.9648433125 0,0 -2.179688,0 -2.179688,0 0,0 0,-11.9648433125 0,-11.9648433125 0,0 -1.839844,0 -1.839844,0 0,0 0,-1.792969 0,-1.792969 0,0 1.839844,0 1.839844,0 0,0 0,-2.332031 0,-2.332031 0,-1.96875 1.207031,-3.128907 3.234375,-3.128907 0.445313,0 0.726563,0.03516 1.230469,0.140625 0,0 0,1.804688 0,1.804688 -0.503906,-0.02344 -0.574219,-0.02344 -0.761719,-0.02344 -0.996094,0 -1.523437,0.46875 -1.523437,1.394532 0,0 0,2.144531 0,2.144531 0,0 2.285156,0 2.285156,0 z M 49.18959,8.243125e-4 c 0,0 -2.179687,0 -2.179687,0 0,0 0,-19.1367183125 0,-19.1367183125 0,0 2.179687,0 2.179687,0 z m 14.522461,0 c 0,0 -1.96875,0 -1.96875,0 0,0 0,-2.1210937125 0,-2.1210937125 -1.289062,1.80468746 -2.578125,2.51953121 -4.59375,2.51953121 -2.683593,0 -4.382812,-1.47656251 -4.382812,-3.76171871 0,0 0,-10.3945311 0,-10.3945311 0,0 2.179687,0 2.179687,0 0,0 0,9.5273436 0,9.5273436 0,1.6523437 1.101563,2.7070312 2.824219,2.7070312 2.285156,0 3.761719,-1.8398437 3.761719,-4.640625 0,0 0,-7.5937498 0,-7.5937498 0,0 2.179687,0 2.179687,0 z m 5.958985,0 c 0,0 -2.179688,0 -2.179688,0 0,0 0,-13.7578123125 0,-13.7578123125 0,0 2.179688,0 2.179688,0 z M 69.952286,-15.831207 c 0,0 -2.730469,0 -2.730469,0 0,0 0,-2.730469 0,-2.730469 0,0 2.730469,0 2.730469,0 z M 84.474747,8.243125e-4 c 0,0 -1.945313,0 -1.945313,0 0,0 0,-2.0156250125 0,-2.0156250125 -1.183594,1.69921876 -2.496094,2.41406251 -4.382812,2.41406251 -3.703125,0 -5.988282,-2.76562501 -5.988282,-7.40625001 0,-4.3828128 2.34375,-7.1367188 5.90625,-7.1367188 1.839844,0 3.304688,0.726563 4.230469,2.121094 0,0 0,-7.113281 0,-7.113281 0,0 2.179688,0 2.179688,0 z M 82.295059,-6.8194882 c 0,-3.1757812 -1.5,-5.2851558 -3.855469,-5.2851558 -2.390625,0 -3.996093,2.027343 -3.996093,5.2265621 0,3.1992187 1.605468,5.2265625 4.019531,5.2265625 2.308594,0 3.832031,-1.9921875 3.832031,-5.1679688 z m 0,0"
       style="fill:#000000;fill-opacity:1;fill-rule:nonzero;stroke:none"
       aria-label="perfluid"
       transform="matrix(1.3333333,0,0,1.3333333,619.53497,190.86999)" />
    <path
       id="path119"
       d="m 284.527,275.625 v 11.25"
       style="fill:none;stroke:#000000;stroke-width:2.25;stroke-linecap:butt;stroke-linejoin:miter;stroke-miterlimit:2;stroke-dasharray:none;stroke-opacity:1"
       transform="scale(1.3333333)" />
    <path
       id="path120"
       d="m 503.441,275.625 v 11.25"
       style="fill:none;stroke:#000000;stroke-width:2.25;stroke-linecap:butt;stroke-linejoin:miter;stroke-miterlimit:2;stroke-dasharray:none;stroke-opacity:1"
       transform="scale(1.3333333)" />
    <path
       id="path121"
       d="m 722.352,275.625 v 11.25"
       style="fill:none;stroke:#000000;stroke-width:2.25;stroke-linecap:butt;stroke-linejoin:miter;stroke-miterlimit:2;stroke-dasharray:none;stroke-opacity:1"
       transform="scale(1.3333333)" />
    <path
       id="path122"
       d="m 262.637,280.875 v 6"
       style="fill:none;stroke:#000000;stroke-width:2.25;stroke-linecap:butt;stroke-linejoin:miter;stroke-miterlimit:2;stroke-dasharray:none;stroke-opacity:1"
       transform="scale(1.3333333)" />
    <path
       id="path123"
       d="m 240.746,280.875 v 6"
       style="fill:none;stroke:#000000;stroke-width:2.25;stroke-linecap:butt;stroke-linejoin:miter;stroke-miterlimit:2;stroke-dasharray:none;stroke-opacity:1"
       transform="scale(1.3333333)" />
    <path
       id="path124"
       d="m 218.855,280.875 v 6"
       style="fill:none;stroke:#000000;stroke-width:2.25;stroke-linecap:butt;stroke-linejoin:miter;stroke-miterlimit:2;stroke-dasharray:none;stroke-opacity:1"
       transform="scale(1.3333333)" />
    <path
       id="path125"
       d="m 196.961,280.875 v 6"
       style="fill:none;stroke:#000000;stroke-width:2.25;stroke-linecap:butt;stroke-linejoin:miter;stroke-miterlimit:2;stroke-dasharray:none;stroke-opacity:1"
       transform="scale(1.3333333)" />
    <path
       id="path126"
       d="m 175.07,280.875 v 6"
       style="fill:none;stroke:#000000;stroke-width:2.25;stroke-linecap:butt;stroke-linejoin:miter;stroke-miterlimit:2;stroke-dasharray:none;stroke-opacity:1"
       transform="scale(1.3333333)" />
    <path
       id="path127"
       d="m 153.18,280.875 v 6"
       style="fill:none;stroke:#000000;stroke-width:2.25;stroke-linecap:butt;stroke-linejoin:miter;stroke-miterlimit:2;stroke-dasharray:none;stroke-opacity:1"
       transform="scale(1.3333333)" />
    <path
       id="path128"
       d="m 131.289,280.875 v 6"
       style="fill:none;stroke:#000000;stroke-width:2.25;stroke-linecap:butt;stroke-linejoin:miter;stroke-miterlimit:2;stroke-dasharray:none;stroke-opacity:1"
       transform="scale(1.3333333)" />
    <path
       id="path129"
       d="m 109.398,280.875 v 6"
       style="fill:none;stroke:#000000;stroke-width:2.25;stroke-linecap:butt;stroke-linejoin:miter;stroke-miterlimit:2;stroke-dasharray:none;stroke-opacity:1"
       transform="scale(1.3333333)" />
    <path
       id="path130"
       d="m 87.508,280.875 v 6"
       style="fill:none;stroke:#000000;stroke-width:2.25;stroke-linecap:butt;stroke-linejoin:miter;stroke-miterlimit:2;stroke-dasharray:none;stroke-opacity:1"
       transform="scale(1.3333333)" />
    <path
       id="path131"
       d="m 306.418,280.875 v 6"
       style="fill:none;stroke:#000000;stroke-width:2.25;stroke-linecap:butt;stroke-linejoin:miter;stroke-miterlimit:2;stroke-dasharray:none;stroke-opacity:1"
       transform="scale(1.3333333)" />
    <path
       id="path132"
       d="m 328.309,280.875 v 6"
       style="fill:none;stroke:#000000;stroke-width:2.25;stroke-linecap:butt;stroke-linejoin:miter;stroke-miterlimit:2;stroke-dasharray:none;stroke-opacity:1"
       transform="scale(1.3333333)" />
    <path
       id="path133"
       d="m 350.203,280.875 v 6"
       style="fill:none;stroke:#000000;stroke-width:2.25;stroke-linecap:butt;stroke-linejoin:miter;stroke-miterlimit:2;stroke-dasharray:none;stroke-opacity:1"
       transform="scale(1.3333333)" />
    <path
       id="path134"
       d="m 372.094,280.875 v 6"
       style="fill:none;stroke:#000000;stroke-width:2.25;stroke-linecap:butt;stroke-linejoin:miter;stroke-miterlimit:2;stroke-dasharray:none;stroke-opacity:1"
       transform="scale(1.3333333)" />
    <path
       id="path135"
       d="m 393.984,280.875 v 6"
       style="fill:none;stroke:#000000;stroke-width:2.25;stroke-linecap:butt;stroke-linejoin:miter;stroke-miterlimit:2;stroke-dasharray:none;stroke-opacity:1"
       transform="scale(1.3333333)" />
    <path
       id="path136"
       d="m 415.875,280.875 v 6"
       style="fill:none;stroke:#000000;stroke-width:2.25;stroke-linecap:butt;stroke-linejoin:miter;stroke-miterlimit:2;stroke-dasharray:none;stroke-opacity:1"
       transform="scale(1.3333333)" />
    <path
       id="path137"
       d="m 437.766,280.875 v 6"
       style="fill:none;stroke:#000000;stroke-width:2.25;stroke-linecap:butt;stroke-linejoin:miter;stroke-miterlimit:2;stroke-dasharray:none;stroke-opacity:1"
       transform="scale(1.3333333)" />
    <path
       id="path138"
       d="m 459.66,280.875 v 6"
       style="fill:none;stroke:#000000;stroke-width:2.25;stroke-linecap:butt;stroke-linejoin:miter;stroke-miterlimit:2;stroke-dasharray:none;stroke-opacity:1"
       transform="scale(1.3333333)" />
    <path
       id="path139"
       d="m 481.551,280.875 v 6"
       style="fill:none;stroke:#000000;stroke-width:2.25;stroke-linecap:butt;stroke-linejoin:miter;stroke-miterlimit:2;stroke-dasharray:none;stroke-opacity:1"
       transform="scale(1.3333333)" />
    <path
       id="path140"
       d="m 525.332,280.875 v 6"
       style="fill:none;stroke:#000000;stroke-width:2.25;stroke-linecap:butt;stroke-linejoin:miter;stroke-miterlimit:2;stroke-dasharray:none;stroke-opacity:1"
       transform="scale(1.3333333)" />
    <path
       id="path141"
       d="m 547.223,280.875 v 6"
       style="fill:none;stroke:#000000;stroke-width:2.25;stroke-linecap:butt;stroke-linejoin:miter;stroke-miterlimit:2;stroke-dasharray:none;stroke-opacity:1"
       transform="scale(1.3333333)" />
    <path
       id="path142"
       d="m 569.113,280.875 v 6"
       style="fill:none;stroke:#000000;stroke-width:2.25;stroke-linecap:butt;stroke-linejoin:miter;stroke-miterlimit:2;stroke-dasharray:none;stroke-opacity:1"
       transform="scale(1.3333333)" />
    <path
       id="path143"
       d="m 591.004,280.875 v 6"
       style="fill:none;stroke:#000000;stroke-width:2.25;stroke-linecap:butt;stroke-linejoin:miter;stroke-miterlimit:2;stroke-dasharray:none;stroke-opacity:1"
       transform="scale(1.3333333)" />
    <path
       id="path144"
       d="m 612.898,280.875 v 6"
       style="fill:none;stroke:#000000;stroke-width:2.25;stroke-linecap:butt;stroke-linejoin:miter;stroke-miterlimit:2;stroke-dasharray:none;stroke-opacity:1"
       transform="scale(1.3333333)" />
    <path
       id="path145"
       d="m 634.789,280.875 v 6"
       style="fill:none;stroke:#000000;stroke-width:2.25;stroke-linecap:butt;stroke-linejoin:miter;stroke-miterlimit:2;stroke-dasharray:none;stroke-opacity:1"
       transform="scale(1.3333333)" />
    <path
       id="path146"
       d="m 656.68,280.875 v 6"
       style="fill:none;stroke:#000000;stroke-width:2.25;stroke-linecap:butt;stroke-linejoin:miter;stroke-miterlimit:2;stroke-dasharray:none;stroke-opacity:1"
       transform="scale(1.3333333)" />
    <path
       id="path147"
       d="m 678.57,280.875 v 6"
       style="fill:none;stroke:#000000;stroke-width:2.25;stroke-linecap:butt;stroke-linejoin:miter;stroke-miterlimit:2;stroke-dasharray:none;stroke-opacity:1"
       transform="scale(1.3333333)" />
    <path
       id="path148"
       d="m 700.461,280.875 v 6"
       style="fill:none;stroke:#000000;stroke-width:2.25;stroke-linecap:butt;stroke-linejoin:miter;stroke-miterlimit:2;stroke-dasharray:none;stroke-opacity:1"
       transform="scale(1.3333333)" />
    <path
       id="path149"
       d="m 744.242,280.875 v 6"
       style="fill:none;stroke:#000000;stroke-width:2.25;stroke-linecap:butt;stroke-linejoin:miter;stroke-miterlimit:2;stroke-dasharray:none;stroke-opacity:1"
       transform="scale(1.3333333)" />
    <path
       id="path150"
       d="M 88.875,285.75 H 77.625"
       style="fill:none;stroke:#000000;stroke-width:2.25;stroke-linecap:butt;stroke-linejoin:miter;stroke-miterlimit:2;stroke-dasharray:none;stroke-opacity:1"
       transform="scale(1.3333333)" />
    <path
       id="path151"
       d="M 88.875,240.125 H 77.625"
       style="fill:none;stroke:#000000;stroke-width:2.25;stroke-linecap:butt;stroke-linejoin:miter;stroke-miterlimit:2;stroke-dasharray:none;stroke-opacity:1"
       transform="scale(1.3333333)" />
    <path
       id="path152"
       d="M 88.875,194.5 H 77.625"
       style="fill:none;stroke:#000000;stroke-width:2.25;stroke-linecap:butt;stroke-linejoin:miter;stroke-miterlimit:2;stroke-dasharray:none;stroke-opacity:1"
       transform="scale(1.3333333)" />
    <path
       id="path153"
       d="M 88.875,148.875 H 77.625"
       style="fill:none;stroke:#000000;stroke-width:2.25;stroke-linecap:butt;stroke-linejoin:miter;stroke-miterlimit:2;stroke-dasharray:none;stroke-opacity:1"
       transform="scale(1.3333333)" />
    <path
       id="path154"
       d="M 88.875,103.25 H 77.625"
       style="fill:none;stroke:#000000;stroke-width:2.25;stroke-linecap:butt;stroke-linejoin:miter;stroke-miterlimit:2;stroke-dasharray:none;stroke-opacity:1"
       transform="scale(1.3333333)" />
    <path
       id="path155"
       d="M 88.875,57.625 H 77.625"
       style="fill:none;stroke:#000000;stroke-width:2.25;stroke-linecap:butt;stroke-linejoin:miter;stroke-miterlimit:2;stroke-dasharray:none;stroke-opacity:1"
       transform="scale(1.3333333)" />
    <path
       id="path156"
       d="M 88.875,12 H 77.625"
       style="fill:none;stroke:#000000;stroke-width:2.25;stroke-linecap:butt;stroke-linejoin:miter;stroke-miterlimit:2;stroke-dasharray:none;stroke-opacity:1"
       transform="scale(1.3333333)" />
    <path
       id="path157"
       d="m 83.625,276.625 h -6"
       style="fill:none;stroke:#000000;stroke-width:2.25;stroke-linecap:butt;stroke-linejoin:miter;stroke-miterlimit:2;stroke-dasharray:none;stroke-opacity:1"
       transform="scale(1.3333333)" />
    <path
       id="path158"
       d="m 83.625,267.5 h -6"
       style="fill:none;stroke:#000000;stroke-width:2.25;stroke-linecap:butt;stroke-linejoin:miter;stroke-miterlimit:2;stroke-dasharray:none;stroke-opacity:1"
       transform="scale(1.3333333)" />
    <path
       id="path159"
       d="m 83.625,258.375 h -6"
       style="fill:none;stroke:#000000;stroke-width:2.25;stroke-linecap:butt;stroke-linejoin:miter;stroke-miterlimit:2;stroke-dasharray:none;stroke-opacity:1"
       transform="scale(1.3333333)" />
    <path
       id="path160"
       d="m 83.625,249.25 h -6"
       style="fill:none;stroke:#000000;stroke-width:2.25;stroke-linecap:butt;stroke-linejoin:miter;stroke-miterlimit:2;stroke-dasharray:none;stroke-opacity:1"
       transform="scale(1.3333333)" />
    <path
       id="path161"
       d="m 83.625,231 h -6"
       style="fill:none;stroke:#000000;stroke-width:2.25;stroke-linecap:butt;stroke-linejoin:miter;stroke-miterlimit:2;stroke-dasharray:none;stroke-opacity:1"
       transform="scale(1.3333333)" />
    <path
       id="path162"
       d="m 83.625,221.875 h -6"
       style="fill:none;stroke:#000000;stroke-width:2.25;stroke-linecap:butt;stroke-linejoin:miter;stroke-miterlimit:2;stroke-dasharray:none;stroke-opacity:1"
       transform="scale(1.3333333)" />
    <path
       id="path163"
       d="m 83.625,212.75 h -6"
       style="fill:none;stroke:#000000;stroke-width:2.25;stroke-linecap:butt;stroke-linejoin:miter;stroke-miterlimit:2;stroke-dasharray:none;stroke-opacity:1"
       transform="scale(1.3333333)" />
    <path
       id="path164"
       d="m 83.625,203.625 h -6"
       style="fill:none;stroke:#000000;stroke-width:2.25;stroke-linecap:butt;stroke-linejoin:miter;stroke-miterlimit:2;stroke-dasharray:none;stroke-opacity:1"
       transform="scale(1.3333333)" />
    <path
       id="path165"
       d="m 83.625,185.375 h -6"
       style="fill:none;stroke:#000000;stroke-width:2.25;stroke-linecap:butt;stroke-linejoin:miter;stroke-miterlimit:2;stroke-dasharray:none;stroke-opacity:1"
       transform="scale(1.3333333)" />
    <path
       id="path166"
       d="m 83.625,176.25 h -6"
       style="fill:none;stroke:#000000;stroke-width:2.25;stroke-linecap:butt;stroke-linejoin:miter;stroke-miterlimit:2;stroke-dasharray:none;stroke-opacity:1"
       transform="scale(1.3333333)" />
    <path
       id="path167"
       d="m 83.625,167.125 h -6"
       style="fill:none;stroke:#000000;stroke-width:2.25;stroke-linecap:butt;stroke-linejoin:miter;stroke-miterlimit:2;stroke-dasharray:none;stroke-opacity:1"
       transform="scale(1.3333333)" />
    <path
       id="path168"
       d="m 83.625,158 h -6"
       style="fill:none;stroke:#000000;stroke-width:2.25;stroke-linecap:butt;stroke-linejoin:miter;stroke-miterlimit:2;stroke-dasharray:none;stroke-opacity:1"
       transform="scale(1.3333333)" />
    <path
       id="path169"
       d="m 83.625,139.75 h -6"
       style="fill:none;stroke:#000000;stroke-width:2.25;stroke-linecap:butt;stroke-linejoin:miter;stroke-miterlimit:2;stroke-dasharray:none;stroke-opacity:1"
       transform="scale(1.3333333)" />
    <path
       id="path170"
       d="m 83.625,130.625 h -6"
       style="fill:none;stroke:#000000;stroke-width:2.25;stroke-linecap:butt;stroke-linejoin:miter;stroke-miterlimit:2;stroke-dasharray:none;stroke-opacity:1"
       transform="scale(1.3333333)" />
    <path
       id="path171"
       d="m 83.625,121.5 h -6"
       style="fill:none;stroke:#000000;stroke-width:2.25;stroke-linecap:butt;stroke-linejoin:miter;stroke-miterlimit:2;stroke-dasharray:none;stroke-opacity:1"
       transform="scale(1.3333333)" />
    <path
       id="path172"
       d="m 83.625,112.375 h -6"
       style="fill:none;stroke:#000000;stroke-width:2.25;stroke-linecap:butt;stroke-linejoin:miter;stroke-miterlimit:2;stroke-dasharray:none;stroke-opacity:1"
       transform="scale(1.3333333)" />
    <path
       id="path173"
       d="m 83.625,94.125 h -6"
       style="fill:none;stroke:#000000;stroke-width:2.25;stroke-linecap:butt;stroke-linejoin:miter;stroke-miterlimit:2;stroke-dasharray:none;stroke-opacity:1"
       transform="scale(1.3333333)" />
    <path
       id="path174"
       d="m 83.625,85 h -6"
       style="fill:none;stroke:#000000;stroke-width:2.25;stroke-linecap:butt;stroke-linejoin:miter;stroke-miterlimit:2;stroke-dasharray:none;stroke-opacity:1"
       transform="scale(1.3333333)" />
    <path
       id="path175"
       d="m 83.625,75.875 h -6"
       style="fill:none;stroke:#000000;stroke-width:2.25;stroke-linecap:butt;stroke-linejoin:miter;stroke-miterlimit:2;stroke-dasharray:none;stroke-opacity:1"
       transform="scale(1.3333333)" />
    <path
       id="path176"
       d="m 83.625,66.75 h -6"
       style="fill:none;stroke:#000000;stroke-width:2.25;stroke-linecap:butt;stroke-linejoin:miter;stroke-miterlimit:2;stroke-dasharray:none;stroke-opacity:1"
       transform="scale(1.3333333)" />
    <path
       id="path177"
       d="m 83.625,48.5 h -6"
       style="fill:none;stroke:#000000;stroke-width:2.25;stroke-linecap:butt;stroke-linejoin:miter;stroke-miterlimit:2;stroke-dasharray:none;stroke-opacity:1"
       transform="scale(1.3333333)" />
    <path
       id="path178"
       d="m 83.625,39.375 h -6"
       style="fill:none;stroke:#000000;stroke-width:2.25;stroke-linecap:butt;stroke-linejoin:miter;stroke-miterlimit:2;stroke-dasharray:none;stroke-opacity:1"
       transform="scale(1.3333333)" />
    <path
       id="path179"
       d="m 83.625,30.25 h -6"
       style="fill:none;stroke:#000000;stroke-width:2.25;stroke-linecap:butt;stroke-linejoin:miter;stroke-miterlimit:2;stroke-dasharray:none;stroke-opacity:1"
       transform="scale(1.3333333)" />
    <path
       id="path180"
       d="m 83.625,21.125 h -6"
       style="fill:none;stroke:#000000;stroke-width:2.25;stroke-linecap:butt;stroke-linejoin:miter;stroke-miterlimit:2;stroke-dasharray:none;stroke-opacity:1"
       transform="scale(1.3333333)" />
    <path
       id="path246"
       d="m 77.625,285.75 h 676.5"
       style="fill:none;stroke:#000000;stroke-width:2.25;stroke-linecap:butt;stroke-linejoin:miter;stroke-miterlimit:2;stroke-dasharray:none;stroke-opacity:1"
       transform="scale(1.3333333)" />
    <path
       id="path247"
       d="m 78.75,286.875 v -276"
       style="fill:none;stroke:#000000;stroke-width:2.25;stroke-linecap:butt;stroke-linejoin:miter;stroke-miterlimit:2;stroke-dasharray:none;stroke-opacity:1"
       transform="scale(1.3333333)" />
  </g>
</svg>
